# CH10032 protected-boundary simulation LOD
# Right-handed Y-up meters; waist is near Y=0
# pinned waist vertices: 368,369,370,371,372,373,374,375,376,377,378,379,380,381,382,383,384,385,386,387,388,389,390,391,392,393,394,395,396,397,398,399,400,401,402,437,438,439,440,441,442,443,444,445,446,447,448,449,450,451,452,453,454,455,456,457,458,459,460,461,462,463,464,465,466,467,468,469,470,471,472,473
o CH10032_lower_sim_lod1
v -0.0020344439 -0.840958655 0.0762247592
v 0.0628224313 -0.857405663 0.0702487528
v 0.120393947 -0.856975377 0.0514313094
v 0.154680118 -0.848061383 0.0312613957
v 0.179262802 -0.845619082 0.0124111427
v 0.199245006 -0.835716546 -0.00627081282
v 0.197324663 -0.799567819 -0.00467747124
v -0.187050268 -0.798962951 -0.0217263568
v -0.185259357 -0.834889948 -0.0257261917
v -0.175079793 -0.822798967 0.00440486846
v -0.156894311 -0.839520574 0.0316876508
v -0.131021217 -0.840982676 0.051196374
v -0.0954189152 -0.854877055 0.0656945482
v -0.0645707622 -0.866818428 0.0727010816
v -0.0389401093 -0.859835684 0.074652411
v -0.143408984 -0.806003392 0.0432173088
v -0.16810669 -0.787616849 0.0191890262
v -0.0912133902 -0.798861682 0.0662352219
v -0.11224249 -0.804460287 0.0594719686
v -0.00546257291 -0.809138417 0.0757213831
v -0.0588990673 -0.79828918 0.0722855777
v 0.0489093065 -0.797215879 0.0712447092
v 0.111310273 -0.79634583 0.0538578369
v 0.130707771 -0.802851558 0.0445858911
v 0.0811352506 -0.796794713 0.0643027946
v 0.168194577 -0.803368866 0.0207959507
v -0.00675589778 -0.829539776 -0.101478726
v 0.0261155497 -0.833589494 -0.10567034
v 0.0630282313 -0.848623991 -0.124731459
v 0.0851552561 -0.829242587 -0.127463445
v 0.11625547 -0.82956171 -0.119107075
v 0.138716727 -0.830587685 -0.0960346684
v 0.15112932 -0.834516466 -0.0663529932
v 0.162982106 -0.83267355 -0.0364992879
v 0.16305165 -0.796468616 -0.0361183584
v 0.163395464 -0.760324895 -0.0352289863
v 0.134987757 -0.758057833 -0.0968355536
v 0.112326652 -0.757258713 -0.117461406
v 0.0824398771 -0.756903291 -0.124214701
v 0.0441974737 -0.733925402 -0.114025243
v 0.0235085897 -0.757086337 -0.107457861
v -0.00692089368 -0.75716871 -0.103768393
v -0.0247395132 -0.744037032 -0.106651947
v -0.0648399815 -0.751750052 -0.118642986
v -0.09667404 -0.757629156 -0.122350946
v -0.125159979 -0.758271635 -0.111092739
v -0.144518808 -0.754245698 -0.0893355757
v -0.162595868 -0.785527885 -0.0618135035
v -0.183218718 -0.760960579 -0.0317872837
v -0.18274942 -0.797111571 -0.0322445184
v -0.182640821 -0.833334684 -0.0321588404
v -0.146699309 -0.844458461 -0.0904368013
v -0.129444569 -0.837958336 -0.111413524
v -0.0990604907 -0.830039799 -0.124809444
v -0.0668871552 -0.829734683 -0.123136982
v -0.0380265526 -0.829720736 -0.108934864
v 0.12810269 -0.79576844 -0.106830835
v 0.145107433 -0.789413273 -0.0793600455
v 0.0694094002 -0.794336021 -0.123108052
v 0.0980438739 -0.792323053 -0.123900034
v 0.0090717217 -0.7937783 -0.104033701
v 0.0395083688 -0.794105113 -0.11271935
v -0.0832545534 -0.794913352 -0.123346567
v -0.111624092 -0.793246448 -0.119258367
v -0.05253933 -0.794409215 -0.115741692
v -0.139102414 -0.796883523 -0.0983012766
v -0.0220663641 -0.793476224 -0.105579861
v -0.00481040729 -0.959269702 0.0703358874
v -0.0375560373 -0.95947808 0.0692471117
v -0.0700674206 -0.959400475 0.065236941
v -0.101923034 -0.959008813 0.0576448776
v -0.13186276 -0.958205342 0.0444100834
v -0.156646222 -0.956840932 0.0230573621
v -0.170207232 -0.954730272 -0.00666850479
v -0.173463076 -0.951690137 -0.0391113982
v -0.175688684 -0.922407746 -0.0358455665
v -0.1779636 -0.893114686 -0.032646317
v -0.180261686 -0.8637954 -0.0294888653
v 0.200678021 -0.865294099 -0.00746534718
v 0.201751471 -0.894884348 -0.00827203598
v 0.202821031 -0.924439847 -0.00905568898
v 0.203782499 -0.953965425 -0.0100811077
v 0.178563252 -0.955287516 0.0107478239
v 0.151806295 -0.956557631 0.0295741484
v 0.12284942 -0.957653642 0.0448239148
v 0.0921679586 -0.958499968 0.0562572218
v 0.0603454821 -0.959064305 0.063981846
v 0.0279114041 -0.95933944 0.0686128065
v -0.166238993 -0.926488817 0.0110344104
v -0.17423974 -0.926952243 -0.0148099596
v -0.176959351 -0.868542969 -0.00319127226
v -0.115965977 -0.926765978 0.0548573807
v 0.0572469644 -0.89240545 0.0701810494
v 0.135957912 -0.867555082 0.0433589593
v -0.161549285 -0.867899537 0.0254651848
v -0.0793351009 -0.924090207 0.0664352104
v -0.117127769 -0.868279636 0.0578239635
v -0.144890308 -0.88473177 0.040975567
v -0.0497193038 -0.917632222 0.0715295821
v -0.0181500819 -0.927427471 0.0731556788
v 0.0824115351 -0.871023118 0.065373227
v 0.0414464734 -0.872814417 0.0707362071
v 0.00973632094 -0.867715716 0.0755889267
v 0.00714983651 -0.915757835 0.0736232549
v 0.178108811 -0.910733998 0.0122521548
v 0.108007014 -0.910319746 0.0545328148
v 0.144837737 -0.918326974 0.0360072181
v -0.145202458 -0.943935812 0.035706535
v -0.0213617962 -0.873488367 0.0763408244
v -0.00656365417 -0.945730925 -0.0991732553
v 0.0251650773 -0.946065784 -0.106301762
v 0.054554671 -0.946227968 -0.120235845
v 0.08515504 -0.946198046 -0.131249249
v 0.117047057 -0.946624458 -0.124921992
v 0.137779191 -0.948216736 -0.0999180973
v 0.151173651 -0.949651361 -0.0703155622
v 0.16230832 -0.950989306 -0.0397871584
v 0.162597418 -0.921443164 -0.0388488211
v 0.162831843 -0.891876459 -0.0379094258
v 0.163011089 -0.862291753 -0.0369398184
v -0.182892799 -0.862965107 -0.0325451121
v -0.182671577 -0.892572522 -0.0332749113
v -0.182443321 -0.922158182 -0.0340655148
v -0.182228506 -0.951717854 -0.0349687338
v -0.161172897 -0.950530231 -0.0597635806
v -0.146096215 -0.94937396 -0.0885820687
v -0.127058491 -0.947997272 -0.114923589
v -0.0982537791 -0.946755588 -0.129967332
v -0.0661774501 -0.946563065 -0.124609642
v -0.0374305397 -0.946261168 -0.109400533
v 0.14658922 -0.914673924 -0.082628876
v 0.141821399 -0.860041082 -0.0927595645
v 0.101525657 -0.918806851 -0.129861951
v 0.0569778942 -0.890985429 -0.122196175
v -0.082704097 -0.888418078 -0.127469882
v -0.152597383 -0.882454395 -0.0798732266
v -0.165122375 -0.925342977 -0.0549483299
v -0.164867148 -0.862643301 -0.0559869781
v -0.0226290189 -0.913374066 -0.102117121
v 0.0696223229 -0.92545557 -0.127112255
v 0.077858381 -0.879960895 -0.127787799
v 0.101595052 -0.855944753 -0.127211735
v 0.127978742 -0.874576569 -0.112364992
v 0.0310078226 -0.911454201 -0.108211346
v 0.00954026636 -0.928224385 -0.101136185
v -0.082162261 -0.920100212 -0.128474459
v -0.11955566 -0.905229568 -0.120056391
v -0.0592934377 -0.916332066 -0.122008711
v -0.0986735746 -0.90459168 -0.126963466
v -0.0694867522 -0.90410012 -0.126039356
v -0.0825465918 -0.856477857 -0.127064496
v -0.0568243451 -0.856739044 -0.120391145
v -0.112483568 -0.85253197 -0.121658519
v -0.0401410908 -0.860122025 -0.109081715
v 0.129064262 -0.933835804 -0.112962089
v 0.00942390412 -0.84494549 -0.101772077
v -0.114145905 -0.929404736 -0.123907752
v -0.138368741 -0.921240628 -0.101757161
v -0.145460561 -0.899507701 -0.0931951702
v -0.015245839 -0.849567533 -0.101490892
v 0.156346232 -0.132345274 7.78751346e-05
v 0.169176713 -0.17370221 -0.0141725158
v 0.1840996 -0.21389398 -0.0296059195
v 0.178757921 -0.259050906 -0.0263884887
v 0.173658445 -0.304295838 -0.0237187874
v 0.170729786 -0.349819332 -0.023504002
v 0.168293506 -0.395372987 -0.0237840302
v 0.167244807 -0.440971017 -0.025119327
v 0.16628249 -0.486574948 -0.0264740717
v 0.165598899 -0.532188237 -0.0279295035
v 0.164920598 -0.577804029 -0.0293465685
v 0.164457291 -0.623428762 -0.0308222268
v 0.164039105 -0.669061601 -0.0322803184
v 0.163747102 -0.714697659 -0.033785671
v -0.18410337 -0.715325952 -0.0309992861
v -0.184971392 -0.669682741 -0.0301590618
v -0.1859456 -0.624043286 -0.0294065699
v -0.187028527 -0.57840687 -0.02872728
v -0.188670516 -0.532788932 -0.0285809748
v -0.190780595 -0.487202585 -0.0289850701
v -0.193245083 -0.441650927 -0.0298186988
v -0.196054518 -0.396143317 -0.0311847385
v -0.199252799 -0.35069862 -0.0330452919
v -0.202444986 -0.305269599 -0.0347466432
v -0.203782499 -0.259754032 -0.0334572829
v -0.197637543 -0.215609625 -0.0240418501
v -0.181489483 -0.175746709 -0.00896836258
v -0.170917258 -0.133354306 0.00398690207
v 0.16316101 -0.379849106 -0.0311252829
v 0.156547442 -0.302683085 -0.0404801778
v 0.174132511 -0.258818835 -0.031090321
v 0.17962575 -0.213696405 -0.0344555229
v 0.166003287 -0.172726259 -0.0198764727
v 0.155277595 -0.13678351 -0.0112851243
v 0.146279722 -0.0881182253 0.00792805292
v 0.141231626 -0.05910974 0.013389891
v -0.154906571 -0.060075026 0.0169864763
v -0.169600606 -0.131751642 -0.0022827033
v -0.178928077 -0.174536556 -0.0149288634
v -0.194105387 -0.214925602 -0.0295764003
v -0.196487024 -0.252944559 -0.0392507017
v -0.1970267 -0.309357285 -0.038004145
v -0.186312765 -0.428519428 -0.0351281092
v -0.17855832 -0.579216599 -0.0378945135
v -0.175447032 -0.668471932 -0.0429586247
v 0.118727446 -0.138388842 -0.082511358
v -0.0925608054 -0.146679729 -0.103671387
v -0.141763762 -0.117024295 -0.0676302165
v 0.0783324838 -0.0851258561 -0.0918549746
v 0.119716771 -0.077584289 -0.0591320172
v -0.0848781615 -0.101329952 -0.0990221724
v 0.121798225 -0.599250376 -0.1056685
v -0.0862266645 -0.572360575 -0.117067128
v -0.136492729 -0.648598313 -0.0971522704
v 0.0982295796 -0.321028918 -0.108040854
v -0.112791881 -0.377576411 -0.108868606
v 0.143262908 -0.144631475 -0.0496963486
v -0.145802334 -0.233345881 -0.0711438358
v -0.159590304 -0.103638336 -0.0195702221
v 0.143062055 -0.598800063 -0.0763120726
v 0.125292361 -0.730707526 -0.106994867
v 0.142926648 -0.716454685 -0.0810366347
v 0.0689222813 -0.65372777 -0.119112097
v -0.139317244 -0.484489501 -0.0887180865
v -0.020105863 -0.652013004 -0.106053956
v -0.137397647 -0.726250112 -0.0985886902
v -0.0802718699 -0.661092281 -0.118400946
v 0.142798275 -0.34926942 -0.0635130107
v 0.111008823 -0.41371882 -0.106641792
v -0.152129024 -0.377013952 -0.065688327
v 0.148243263 -0.176652178 -0.0595154837
v 0.139336646 -0.0962906033 -0.0309411101
v -0.166675016 -0.228237852 -0.0605597831
v -0.149560794 -0.0670649409 -0.011301388
v -0.138466597 -0.0682329088 -0.0445124581
v -0.164561749 -0.149071246 -0.0309839249
v 0.157341585 -0.514551938 -0.0432314761
v 0.152009457 -0.668415844 -0.0597813278
v 0.0978631079 -0.711719394 -0.121690944
v 0.136214778 -0.654343069 -0.0890767276
v -0.155615821 -0.442832828 -0.0629661679
v -0.112356916 -0.717621088 -0.118197881
v 0.153305054 -0.341215938 -0.044321835
v 0.13692376 -0.250297636 -0.0638996586
v 0.144005731 -0.433902919 -0.0656063408
v -0.170927584 -0.373788208 -0.0473938286
v -0.155046284 -0.300734669 -0.0617090352
v -0.158799514 -0.341766208 -0.0578708425
v 0.129013211 -0.179070681 -0.0717564523
v 0.13365756 -0.110051394 -0.054959517
v 0.131980732 -0.138006285 -0.0676948875
v 0.120264105 -0.10575372 -0.0726967156
v 0.0997378454 -0.107769534 -0.0897362456
v 0.0463628247 -0.232565194 -0.106427185
v 0.00472136494 -0.12884289 -0.0953332782
v -0.0033371693 -0.0540693253 -0.0596012436
v 0.099110052 -0.0707736835 -0.0759147778
v 0.0868473202 -0.17825225 -0.101646163
v 0.076400727 -0.0516508184 -0.0750881135
v 0.107979804 -0.0482200943 -0.0584539175
v 0.0972974449 -0.141146794 -0.0969881043
v 0.108795471 -0.182587221 -0.0945154056
v 0.0464815535 -0.0641418472 -0.0842718333
v 0.133988857 -0.0657484159 -0.0137311481
v 0.122132055 -0.0501593016 -0.041338902
v -0.142699361 -0.0510132462 -0.0260609128
v -0.14666 -0.0973387435 -0.0490257256
v -0.162260219 -0.188145563 -0.0617217571
v 0.114701718 -0.553448737 -0.110093556
v 0.107528813 -0.661665261 -0.117643297
v 0.00662776642 -0.710642695 -0.10411045
v -0.177476257 -0.503418803 -0.0394809432
v -0.120741487 -0.676695228 -0.113561809
v -0.0943877921 -0.652208507 -0.118646093
v -0.0774095431 -0.721130192 -0.120090917
v -0.149536803 -0.584318757 -0.0765175
v 0.136016116 -0.393606097 -0.0787213594
v 0.156744778 -0.236279994 -0.0456145369
v -0.172409967 -0.276774615 -0.0545665547
v -0.134222761 -0.388504326 -0.0908213407
v 0.1232761 -0.235421717 -0.0847965404
v 0.0828234479 -0.203920767 -0.10377083
v 0.0575626828 -0.0432115495 -0.0768396631
v 0.0463547148 -0.122742675 -0.104065403
v 0.0725833476 -0.130104631 -0.103946291
v -0.178926915 -0.201349542 -0.0461858995
v 0.135164857 -0.559699595 -0.0874268934
v 0.0607553273 -0.700423062 -0.118899323
v -0.130897626 -0.590435922 -0.101326495
v -0.0468828455 -0.663289547 -0.113439664
v 0.128081113 -0.448750556 -0.0914000571
v 0.130055457 -0.526847363 -0.0929680318
v 0.125776857 -0.366413087 -0.0914061889
v 0.137706742 -0.212494135 -0.0622327961
v -0.109535567 -0.271481335 -0.106380776
v -0.132279769 -0.303500801 -0.087756291
v -0.125592172 -0.34698236 -0.0979800373
v -0.118483759 -0.308980286 -0.102677166
v -0.0618396625 -0.3372491 -0.109046504
v -0.0912617445 -0.303752631 -0.111517206
v -0.0817537531 -0.222447261 -0.107354335
v -0.0860646442 -0.381392241 -0.113768883
v -0.107924916 -0.336229742 -0.108772345
v -0.110874712 -0.229818508 -0.103670701
v -0.0346204937 -0.343788296 -0.107426234
v -0.0419174694 -0.173178345 -0.111108869
v -0.0749526173 -0.182496339 -0.106306709
v -0.0093770884 -0.449062347 -0.106214829
v -0.0374324322 -0.217752993 -0.10808374
v -0.043039009 -0.444270343 -0.108950466
v 0.10764347 -0.263856679 -0.101636067
v 0.0404026583 -0.173760489 -0.107168831
v 0.0561658256 -0.0932908356 -0.0978027284
v 0.0263113026 -0.0912028775 -0.0936087295
v 0.0245199576 -0.121237852 -0.101368643
v 0.0101127299 -0.102261111 -0.0860326141
v 0.0304056648 -0.632442534 -0.109328672
v -0.0956789181 -0.470843852 -0.115407839
v -0.0728529394 -0.459807217 -0.113595776
v -0.115675926 -0.632440984 -0.115492389
v -0.0835790709 -0.618551135 -0.117972828
v 0.128857702 -0.283441544 -0.0810410008
v -0.0714131892 -0.129766107 -0.105812721
v -0.0400363766 -0.0816504508 -0.0892296061
v -0.017908901 -0.10080798 -0.0828435197
v -0.0605543479 -0.0990007296 -0.0993886292
v -0.0715589598 -0.0606347062 -0.0834541917
v -0.117454953 -0.118291467 -0.0908590183
v -0.144231588 -0.177920774 -0.0755599737
v -0.153119087 -0.14558734 -0.0580070131
v -0.00649749301 -0.23468478 -0.109159403
v -0.0201703534 -0.161623657 -0.111767188
v 0.067071192 -0.302887112 -0.108697809
v 0.00586387329 -0.610834181 -0.104783475
v -0.115444668 -0.53923583 -0.113524191
v -0.119981155 -0.477266908 -0.108748697
v -0.064147301 -0.587151885 -0.115155473
v -0.0207328405 -0.601888657 -0.106433824
v 0.121963985 -0.31853047 -0.0927005932
v -0.126078263 -0.0820086673 -0.0708691478
v -0.124673598 -0.04979413 -0.0571944192
v 0.0247153398 -0.328040332 -0.107045755
v 0.00750777358 -0.164065614 -0.113002129
v -0.0181677155 -0.129135251 -0.101746343
v -0.0396102704 -0.11423865 -0.0997943655
v -0.0957244635 -0.530981123 -0.116052009
v -0.100576386 -0.0706835315 -0.0832434893
v -0.0874558017 -0.0449376814 -0.0756960735
v 0.0788560286 -0.362813979 -0.111801818
v 0.0254018251 -0.149465203 -0.11048118
v 0.0140376538 -0.533295631 -0.106835537
v -0.0145432502 -0.529077768 -0.105731539
v -0.105164804 -0.0476990975 -0.0651031137
v 0.104405195 -0.603130877 -0.117026038
v 0.106970802 -0.502720356 -0.112928569
v 0.0572917797 -0.550651848 -0.115244031
v 0.095446758 -0.531896651 -0.116353616
v 0.0945864245 -0.576626778 -0.117631435
v 0.0729660019 -0.478671759 -0.11522831
v 0.0407465175 -0.39121455 -0.108658321
v 0.0871947408 -0.42230165 -0.114069723
v 0.10601332 -0.35805732 -0.106305197
v 0.0985988006 -0.38530761 -0.110724621
v -0.0482646413 -0.050997071 -0.081101343
v 0.0389668643 -0.497178912 -0.109889835
v 0.0208049864 -0.0549324937 -0.0804896429
v -0.131623164 -0.222343341 -0.0841369629
v -0.0220666435 -0.0640379041 -0.0658613071
v -0.13505803 -0.0114486087 0.0235246643
v -0.133633003 -0.00947497599 0.0141209578
v -0.13124606 -0.0073994142 0.00486119464
v -0.127718925 -0.00544458022 -0.00418308843
v -0.123353221 -0.00373339839 -0.0130063016
v -0.118082665 -0.00249621575 -0.0211418122
v -0.111647427 -0.00163903809 -0.0285038687
v -0.104346611 -0.000802124036 -0.0346600451
v -0.0959953368 -0.000370727532 -0.0396318436
v -0.0869339257 -0.000447753904 -0.0431014709
v -0.0774389431 -0.00109521486 -0.0452036671
v -0.0677111223 -0.00212854007 -0.0461298674
v -0.0580075458 -0.00302026374 -0.0468603075
v -0.0481979921 -0.00363610848 -0.0473945923
v -0.0382964127 -0.00399645977 -0.0477775261
v -0.0283760559 -0.00432678219 -0.0478571244
v -0.01842691 -0.00451940903 -0.0478706807
v -0.00845239591 -0.00457861321 -0.0478253551
v 0.00149699207 -0.0044853515 -0.0477007888
v 0.01148134 -0.00426318357 -0.0475390851
v 0.0214498509 -0.00398193346 -0.0473923124
v 0.0313481167 -0.00355078117 -0.0470943376
v 0.0411629081 -0.00297631836 -0.0465127863
v 0.0509957895 -0.00200671377 -0.0458469093
v 0.0607552119 -0.000678466808 -0.0449788198
v 0.0703135878 -3.35693367e-05 -0.0433277376
v 0.0795605332 0 -0.0403825156
v 0.0881591961 -0.000435424794 -0.0360070877
v 0.0958141536 -0.00105541991 -0.0299168862
v 0.102483071 -0.00189257809 -0.0227408949
v 0.108095586 -0.00315673836 -0.0146745797
v 0.112575188 -0.00484545901 -0.00607454311
v 0.116225377 -0.00682556164 0.00295891566
v 0.118864745 -0.00905578583 0.0121102426
v 0.120500259 -0.0111115724 0.021524718
v 0.125122085 -0.0269048773 0.0156817194
v 0.127634153 -0.0294094235 0.00770276273
v 0.122549094 -0.0249408633 0.00151313387
v 0.114044301 -0.0204449873 -0.0192685872
v 0.108986109 -0.0195386074 -0.0261875819
v 0.0996704698 -0.0162994489 -0.036780417
v 0.092272535 -0.0174126811 -0.0436947644
v 0.0780678913 -0.0168271475 -0.0514453016
v 0.0695368722 -0.0170458723 -0.0542652756
v 0.0588448606 -0.018462792 -0.0559557527
v 0.0469214544 -0.0165793598 -0.0548559651
v 0.0398298614 -0.0233060308 -0.0574206859
v 0.0335740075 -0.0198533647 -0.0570001081
v 0.017742401 -0.0223588869 -0.0602922142
v 0.0113492534 -0.0201519728 -0.0558503494
v -0.00353510398 -0.0190407429 -0.0554231741
v -0.0166709535 -0.0204508267 -0.055770617
v -0.024015313 -0.0235980228 -0.0597282946
v -0.0350994021 -0.0225493163 -0.0602395236
v -0.0782953352 -0.0179341249 -0.0555579402
v -0.105168425 -0.016986208 -0.0447868854
v -0.112483867 -0.020131059 -0.0403130874
v -0.123564072 -0.0232755076 -0.0284587387
v -0.131120414 -0.0251166131 -0.0159798916
v -0.135844767 -0.0244782493 -0.000883606379
v -0.139378473 -0.0275963526 0.0115223918
v -0.141314387 -0.0338776968 0.0205309931
v 0.0216623805 -0.0168217607 -0.054349456
v 0.109580398 -0.00635477854 -0.0155113796
v -0.0539005324 -0.0146272415 -0.0535008386
v -0.0389253832 -0.0150147602 -0.0533362553
v -0.0901177377 -0.0170501787 -0.0521698259
v -0.117746189 -0.00579608046 -0.0248431582
v 0.127492726 -0.0353831463 0.0242851507
v 0.120914847 -0.0119907223 0.0265281107
v 0.121177971 -0.0127070313 0.0315538496
v 0.120589636 -0.0138317868 0.0412248261
v 0.118691914 -0.0147083737 0.0507885516
v 0.115017168 -0.0153548587 0.0599032417
v 0.109895907 -0.0161434319 0.0683405325
v 0.103486232 -0.0170544442 0.0759812221
v 0.0960400701 -0.0184765626 0.0825606138
v 0.0877502263 -0.019969482 0.0878855884
v 0.0787419304 -0.0211286619 0.0920384303
v 0.0695806667 -0.0220970456 0.0958189145
v 0.060339462 -0.022932129 0.0996046513
v 0.0510677658 -0.0237004403 0.103401013
v 0.0418859161 -0.0244072266 0.107378289
v 0.0326894037 -0.0251453854 0.11129196
v 0.0229936987 -0.0255014654 0.113924339
v 0.0130171431 -0.0258594975 0.114838377
v 0.00305563537 -0.0260289311 0.114658408
v -0.00696251029 -0.0260688476 0.11459212
v -0.0169165209 -0.0260535888 0.114545479
v -0.0268753357 -0.0260112304 0.114508204
v -0.0368307456 -0.0257614739 0.114051722
v -0.0465294346 -0.0254333504 0.111603782
v -0.0557267517 -0.0248359367 0.107761994
v -0.0649210662 -0.0242644046 0.103904344
v -0.0740648732 -0.0236850586 0.100044541
v -0.0832126513 -0.0229714364 0.0962226018
v -0.0922881365 -0.0221224371 0.0923898891
v -0.101218045 -0.0210823976 0.0884514973
v -0.109549984 -0.0200063474 0.0833773166
v -0.116968937 -0.0188518073 0.0771881044
v -0.123429134 -0.0177838132 0.0697661191
v -0.128671765 -0.0166614987 0.0615136996
v -0.132458732 -0.0156413577 0.0524940453
v -0.134675831 -0.0146225588 0.0430969037
v -0.135501772 -0.0132158203 0.0334963128
v -0.135452688 -0.0124113774 0.0285000466
v -0.139873028 -0.0307673104 0.0348156393
v -0.141953021 -0.036310304 0.0415137149
v -0.117387153 -0.0368069746 0.0800144747
v -0.111539274 -0.0429509878 0.0839078501
v -0.0971876159 -0.0405631326 0.0919935778
v -0.0935892016 -0.0441276245 0.0964291021
v -0.0869698152 -0.0422379039 0.0956070647
v -0.0722714812 -0.0456704088 0.0990479067
v -0.0597715564 -0.0430015028 0.106544152
v -0.0551315285 -0.0467315055 0.112173058
v -0.0469167791 -0.0408997685 0.111513399
v -0.0362486318 -0.0465427376 0.114019483
v -0.0232613701 -0.0479086302 0.117420413
v -0.015171648 -0.0450470261 0.114579305
v -0.00218186597 -0.0482008792 0.115037166
v 0.0239812452 -0.045936957 0.113457575
v 0.0307614245 -0.046877563 0.115279816
v 0.0413359441 -0.0463829972 0.111649565
v 0.0460987687 -0.0426091589 0.10569261
v 0.0625161156 -0.0414087214 0.0993390158
v 0.0703509301 -0.044135008 0.100050777
v 0.0719023496 -0.0362679176 0.0960359871
v 0.0961868316 -0.0393110923 0.0847332627
v 0.108351611 -0.0355306901 0.0742911994
v 0.115781076 -0.0379099734 0.0701766461
v 0.115729645 -0.0342967436 0.0642633066
v 0.124192335 -0.0333313905 0.0447403267
v 0.127928376 -0.035450805 0.0388641432
v -0.128095567 -0.0350611359 0.0678264424
v -0.138059244 -0.0333522707 0.0458419137
v -0.0716333911 -0.0402405262 0.101898871
v -0.0292714238 -0.0401324555 0.114608243
v 0.0535647944 -0.0361841135 0.103761949
v 0.0152266668 -0.0373190306 0.114877246
v 0.125370145 -0.0301179122 0.0359719135
v 0.0893432871 -0.0351847596 0.089058198
v 0.104699329 -0.0257151518 0.077261053
v 0.117943875 -0.0291966479 0.0597323962
v -0.122782245 -0.0352698639 0.0742724687
v -0.133114234 -0.0280560367 0.0567823574
v -0.106636181 -0.0345184244 0.0871473029
v 0.0351420604 -0.0401553549 0.110572524
v -0.151726887 -0.0626766384 0.021150101
v -0.161595926 -0.0907788724 0.0178533755
v -0.172178879 -0.135817751 0.020483261
v -0.180007771 -0.180490106 0.0216589253
v -0.183263987 -0.22534509 0.0205367953
v -0.184139356 -0.270235479 0.0175635926
v -0.185028926 -0.315162539 0.014326659
v -0.18582727 -0.360090286 0.0110563356
v -0.186559841 -0.404992074 0.00781756267
v -0.187179253 -0.449858695 0.00455721281
v -0.187772661 -0.494696587 0.00132349774
v -0.188221827 -0.539501488 -0.00191650959
v -0.188639238 -0.58427757 -0.00511196116
v -0.188977495 -0.629013419 -0.00832000189
v -0.189127058 -0.673710465 -0.0115736462
v -0.189035505 -0.718359828 -0.0149327926
v -0.188641503 -0.762958229 -0.0184488911
v -0.1820198 -0.755407274 -0.00213036127
v -0.152310163 -0.767408133 0.038660381
v -0.126308218 -0.768792987 0.0553014055
v -0.0455595516 -0.757727027 0.0754533038
v 0.00390827097 -0.757727742 0.0770437568
v 0.034793064 -0.756552815 0.0752679259
v 0.132992178 -0.753114164 0.0449207053
v 0.181024775 -0.69385314 0.0104812337
v 0.196171209 -0.763356864 -0.00375133893
v 0.194429532 -0.718628943 -0.00256435387
v 0.192696214 -0.673849821 -0.00130193518
v 0.190861985 -0.629021645 1.28364563e-05
v 0.189065307 -0.584164202 0.00151920319
v 0.18715778 -0.539268792 0.0031202489
v 0.185170099 -0.494350225 0.00487443153
v 0.18311584 -0.449400574 0.00678106211
v 0.180997834 -0.404423535 0.0088454932
v 0.178565055 -0.359417617 0.0109564997
v 0.176056802 -0.314412773 0.0132971155
v 0.173328534 -0.269434869 0.0157011487
v 0.169612095 -0.224583253 0.0176342335
v 0.166054964 -0.179692328 0.0187064819
v 0.158191532 -0.135024294 0.0173834022
v 0.147120446 -0.0899543464 0.0145654399
v 0.13750191 -0.0616873167 0.0180186722
v -0.181624815 -0.63215661 0.00775831519
v -0.178000778 -0.454974502 0.0268921833
v -0.177994519 -0.200275347 0.0394994579
v -0.179099008 -0.180643559 0.0281558372
v -0.171436355 -0.135813415 0.0269622803
v -0.154643312 -0.0639988407 0.0258757137
v 0.139492959 -0.0627550408 0.0234538745
v 0.157943338 -0.134928897 0.0239043925
v 0.165434316 -0.179799139 0.0252491888
v 0.168311507 -0.243918866 0.0285871197
v 0.174516588 -0.329987019 0.0182452314
v 0.178890973 -0.446955323 0.0134302974
v 0.181939557 -0.562917829 0.00991149247
v 0.00969739724 -0.322695524 0.106660731
v -0.0772358328 -0.235463247 0.112509221
v -0.14252238 -0.122953124 0.0787203535
v 0.104817748 -0.180493966 0.0990022942
v -0.0842327997 -0.132390872 0.0957926735
v -0.005800304 -0.182597473 0.130652428
v 0.127848402 -0.117899232 0.0754210725
v 0.0843772069 -0.113499448 0.10545253
v -0.00706038345 -0.115812011 0.118196368
v -0.140547231 -0.612528622 0.0596655942
v 0.157270581 -0.721137881 0.030641241
v -0.111587599 -0.390122622 0.0909466073
v 0.0939671025 -0.43466261 0.0902065411
v -0.152735785 -0.225785628 0.0809578151
v -0.157634377 -0.116031371 0.0515040979
v 0.147008747 -0.206149295 0.0705657452
v 0.141190097 -0.105059288 0.0514700785
v -0.164745182 -0.610159218 0.0379510671
v -0.139468417 -0.744044304 0.0498248748
v -0.163737386 -0.724890292 0.0297758356
v 0.168831214 -0.646427155 0.023006266
v -0.155651689 -0.432066411 0.0613212474
v 0.154599413 -0.425124407 0.0471370369
v -0.167288661 -0.205823675 0.0630767867
v -0.145276397 -0.0811164528 0.069481805
v 0.160951406 -0.205155 0.0472975336
v 0.154279634 -0.15949969 0.0513324998
v 0.158970118 -0.273072809 0.0491386987
v -0.175776333 -0.690695882 0.0146112666
v -0.172580287 -0.557333231 0.031064475
v -0.114234112 -0.72275573 0.063665539
v -0.155677661 -0.669239521 0.0427342393
v 0.0921464711 -0.715802014 0.0659293681
v 0.163706347 -0.458570153 0.0350700244
v 0.124200657 -0.341494501 0.0808157846
v 0.141660914 -0.510136366 0.0527226776
v -0.172882989 -0.278735757 0.0498494394
v -0.159540758 -0.159482673 0.0643768609
v -0.124194659 -0.087874651 0.0927479342
v -0.14705205 -0.0700283796 0.0476184078
v 0.14095287 -0.138492182 0.0630104467
v 0.124153815 -0.158267826 0.0828819126
v 0.141342446 -0.297208339 0.0712772757
v -0.0781367347 -0.525140107 0.0882204622
v 0.110306375 -0.667841971 0.0612688959
v -0.167223349 -0.391983062 0.0538883545
v -0.0212147757 -0.714802027 0.0795622468
v 0.168036759 -0.5459553 0.0269756522
v -0.161787733 -0.243105233 0.0701515824
v -0.167181611 -0.143989012 0.0475032851
v -0.132630721 -0.201507926 0.0924974307
v -0.148307353 -0.176851869 0.0797088146
v -0.132443905 -0.0677733123 0.0834104717
v -0.117130563 -0.131756172 0.0972011089
v -0.131912783 -0.158190548 0.0918456092
v -0.101863004 -0.172154054 0.0953086615
v 0.105699442 -0.127669007 0.0894004628
v 0.10425882 -0.0853006616 0.080541417
v 0.09205807 -0.148185357 0.1034192
v 0.0514469221 -0.119737111 0.110095769
v 0.0636882409 -0.138451234 0.0983847678
v 0.0540423766 -0.0926770046 0.0986109152
v 0.0625530109 -0.204064324 0.106776543
v 0.0377102122 -0.0862514004 0.121363066
v 0.0787608847 -0.178036258 0.0998185053
v 0.0553145111 -0.170538872 0.106111422
v 0.02917495 -0.190146059 0.125569269
v 0.126510993 -0.19526507 0.0864818469
v 0.128671542 -0.247896641 0.0865263566
v 0.152258381 -0.318214834 0.0564628169
v -0.135490119 -0.553543627 0.0670159757
v -0.166074932 -0.508790195 0.0453830138
v -0.0903276056 -0.715061188 0.0708508864
v 0.135497227 -0.630677819 0.0495321527
v -0.143350959 -0.380486697 0.0746622831
v 0.0694574043 -0.717555404 0.072763823
v 0.0508881174 -0.643503368 0.0821439102
v 0.0269276761 -0.603110909 0.0868541077
v 0.0843739808 -0.590675533 0.0792523399
v -0.0437988453 -0.582913935 0.0872788057
v 0.0603767857 -0.56292969 0.0874220058
v 0.151022255 -0.581831694 0.0412057899
v 0.129277036 -0.542930603 0.0591727868
v 0.0990561619 -0.525051236 0.0788288936
v 0.0729540214 -0.478156149 0.0918289721
v 0.0511403419 -0.501606762 0.0916508958
v 0.0360522233 -0.414001405 0.0893307924
v 0.165889114 -0.371924669 0.0345393196
v -0.1662772 -0.319167167 0.0592400394
v -0.14335224 -0.318858057 0.0817666724
v -0.0984614864 -0.0998512581 0.102210432
v -0.065888688 -0.0921080932 0.0971033201
v -0.105492428 -0.0720820948 0.100929327
v -0.112000279 -0.202525392 0.0980204269
v 0.127741635 -0.0830690935 0.0719687417
v 0.0755563602 -0.079337284 0.105875693
v 0.143471926 -0.263459355 0.0724016502
v -0.155217901 -0.561457157 0.0517453253
v -0.089072302 -0.586745262 0.0801466331
v -0.129705578 -0.352404892 0.0865714252
v 0.117118053 -0.446351945 0.075002715
v 0.0737146661 -0.404909492 0.0931815356
v 0.0816568881 -0.321971327 0.0919815376
v -0.0831944644 -0.0760832503 0.104035489
v -0.0478598103 -0.141756475 0.123530805
v -0.135828808 -0.272295654 0.0890888721
v -0.114003301 -0.287979722 0.0938017815
v -0.12149857 -0.318031311 0.0919354036
v -0.0977746025 -0.250939399 0.102826826
v 0.0932539925 -0.0716339126 0.0966043994
v -0.113986902 -0.520382285 0.0773519725
v -0.146149248 -0.47056821 0.0659453869
v -0.118053444 -0.614702225 0.069847241
v 0.112835959 -0.31702137 0.0917504355
v -0.0687549338 -0.616272032 0.0821973905
v -0.0602882281 -0.125562742 0.104345739
v -0.0685518533 -0.174715653 0.105142549
v -0.0446291976 -0.094101809 0.124819852
v -0.100063875 -0.350146234 0.0943029076
v -0.0438042432 -0.355552256 0.0976557136
v -0.122042403 -0.426516056 0.082385093
v -0.0137121156 -0.563928068 0.089029327
v -0.057282608 -0.227512941 0.119727179
v -0.0290357806 -0.120193295 0.129745275
v -0.0250744224 -0.157048643 0.131249249
v -0.0327687934 -0.20471938 0.126854718
v -0.052621074 -0.401158035 0.0898391902
v -0.0691707656 -0.341722161 0.093401514
v -0.0926104113 -0.492347956 0.0876664668
v 0.0221043788 -0.489222854 0.0909060016
v -0.0458208174 -0.175331026 0.124570101
v -0.0791789815 -0.394260347 0.0940409452
v -0.0729724839 -0.461120903 0.093113251
v -0.0176532585 -0.432929724 0.0879838169
v -0.0230531525 -0.47901997 0.0905601978
v -0.0404232033 -0.508595467 0.0915729702
v -0.0217244923 -0.368668079 0.0993834212
v -0.00328746601 -0.263160974 0.118161619
v -0.0967930928 -0.428792983 0.092157267
v 0.0293647628 -0.388239175 0.0907535776
v 0.053894233 -0.330623776 0.096396625
v 0.060242828 -0.271113843 0.10645441
v 0.0262540989 -0.27708441 0.113489687
v 0.111418352 -0.276099116 0.0942961574
v 0.0997670218 -0.228856936 0.0991652906
v 0.0723727271 -0.238771424 0.109664679
v 0.0874660462 -0.264474779 0.0983195677
v 0.0652490333 -0.362378418 0.0907161906
v 0.14286527 -0.172341436 0.0702211857
v 0.127185628 -0.407435626 0.0714915991
v 0.00999233406 -0.0869967639 0.125118226
v -0.0111998813 -0.0825337544 0.113848403
v 0.0192543287 -0.125429258 0.127962321
v -0.0273389183 -0.0762025788 0.126488388
v 0.00149457261 -0.149232119 0.123575889
v 0.101099499 -0.357617974 0.0932954922
v -0.0712602511 -0.206896856 0.108989544
v -0.0591705106 -0.0770033598 0.114771597
v 0.0302991085 -0.221816331 0.123267487
v 0.0456068628 -0.24006933 0.117725439
v 0.0238194242 -0.15804334 0.128210977
vt 0.494970777 0.876475171
vt 0.654111181 0.893619289
vt 0.795115205 0.893170762
vt 0.879006987 0.883877487
vt 0.939498008 0.881331147
vt 0.988866806 0.871011615
vt 0.984155118 0.833336174
vt 0.0410541221 0.832705796
vt 0.045448292 0.870150089
vt 0.0698421051 0.857554278
vt 0.115044683 0.874976277
vt 0.178526804 0.87650013
vt 0.266307277 0.890960591
vt 0.341737122 0.903425448
vt 0.404587198 0.896143414
vt 0.14813222 0.840043545
vt 0.0881487714 0.820858943
vt 0.276252631 0.832595743
vt 0.224602222 0.838435292
vt 0.486578652 0.843335439
vt 0.355462095 0.832006178
vt 0.620025084 0.830887576
vt 0.773034576 0.829974831
vt 0.820704103 0.836758614
vt 0.699093907 0.8304474
vt 0.911873452 0.837285099
vt 0.48342374 0.864574015
vt 0.56362713 0.868808995
vt 0.655022379 0.884463396
vt 0.708936632 0.86426425
vt 0.785243988 0.864596844
vt 0.84035486 0.865666151
vt 0.871124536 0.869758946
vt 0.89989233 0.867840111
vt 0.900062919 0.83010608
vt 0.900906563 0.792435884
vt 0.831205487 0.790073156
vt 0.775604248 0.789240241
vt 0.702274203 0.788869798
vt 0.608489056 0.764923052
vt 0.557680607 0.789060593
vt 0.483018935 0.789146483
vt 0.439502307 0.775446531
vt 0.340955026 0.78349404
vt 0.262800902 0.7896263
vt 0.192907915 0.790295959
vt 0.144806358 0.786087553
vt 0.100825081 0.818702515
vt 0.05045522 0.79309845
vt 0.0516066551 0.830776215
vt 0.0518731438 0.868529141
vt 0.14007656 0.880123371
vt 0.182995821 0.873367658
vt 0.256945521 0.865095139
vt 0.335885912 0.864777148
vt 0.406698197 0.864762604
vt 0.814312279 0.8293764
vt 0.855686677 0.822753473
vt 0.670302629 0.827883422
vt 0.740560114 0.825785458
vt 0.522258341 0.827302217
vt 0.596937597 0.827642798
vt 0.295726925 0.828485191
vt 0.226119518 0.826747894
vt 0.371089697 0.827959716
vt 0.158698827 0.830538571
vt 0.445858061 0.826987326
vt 0.488197207 0.99978286
vt 0.40785265 1
vt 0.32808283 0.999919116
vt 0.249922007 0.999510884
vt 0.176461995 0.998673499
vt 0.115653403 0.997251511
vt 0.0823801309 0.995051682
vt 0.0743916035 0.991883159
vt 0.0689308718 0.96136409
vt 0.0633491427 0.930833876
vt 0.0577105843 0.900276363
vt 0.992382884 0.901838362
vt 0.995016694 0.932678282
vt 0.997640967 0.963482022
vt 1 0.994254529
vt 0.938122153 0.99563247
vt 0.872471392 0.99695617
vt 0.801422894 0.998098493
vt 0.726143003 0.998980582
vt 0.648063481 0.99956876
vt 0.568483293 0.999855518
vt 0.0921738246 0.965616005
vt 0.0727472619 0.9660882
vt 0.066273996 0.905218308
vt 0.215676281 0.965889463
vt 0.64038376 0.930074829
vt 0.833497975 0.904191107
vt 0.104627103 0.904545291
vt 0.3055738 0.963089793
vt 0.212615728 0.904949963
vt 0.145254119 0.922086205
vt 0.378124535 0.956365381
vt 0.455466172 0.966583099
vt 0.70176982 0.907802387
vt 0.601690544 0.909677109
vt 0.523870739 0.9043576
vt 0.517498691 0.954411627
vt 0.936542975 0.949185908
vt 0.764598716 0.948728638
vt 0.854863993 0.957090945
vt 0.143731758 0.983801305
vt 0.447586775 0.910378635
vt 0.483895451 0.985672235
vt 0.561744928 0.98602128
vt 0.633855164 0.986190259
vt 0.708936095 0.986159146
vt 0.787186265 0.986603498
vt 0.838054538 0.988263011
vt 0.870919108 0.989758253
vt 0.898239136 0.991152704
vt 0.898948431 0.960358739
vt 0.899523616 0.929543376
vt 0.899963439 0.898709178
vt 0.0512548797 0.899410963
vt 0.0517976694 0.930268824
vt 0.0523577183 0.961103916
vt 0.0528847836 0.991912007
vt 0.10454677 0.990674257
vt 0.141538844 0.989469111
vt 0.188249737 0.988034308
vt 0.258924872 0.986740172
vt 0.337627262 0.986539543
vt 0.408160567 0.98622489
vt 0.859427521 0.953303549
vt 0.846960203 0.896378508
vt 0.749103379 0.957611962
vt 0.63997617 0.928606076
vt 0.297077537 0.925938904
vt 0.125785534 0.919722458
vt 0.0935647494 0.964406299
vt 0.0946711961 0.89908564
vt 0.444510268 0.951949136
vt 0.670817073 0.964540149
vt 0.691090387 0.917126157
vt 0.749273241 0.892094076
vt 0.813383285 0.911532119
vt 0.57590441 0.949936111
vt 0.52340891 0.967426198
vt 0.298406959 0.958959103
vt 0.206552248 0.943457557
vt 0.354228197 0.955041089
vt 0.257894874 0.942795515
vt 0.32950756 0.942283273
vt 0.297463983 0.89264977
vt 0.36053937 0.892922267
vt 0.224135447 0.888557789
vt 0.401522272 0.896447276
vt 0.81667161 0.973274767
vt 0.523121822 0.880630445
vt 0.21993202 0.96865654
vt 0.160498962 0.960147619
vt 0.143378169 0.937501471
vt 0.462806063 0.885473323
vt 0.883610547 0.137934655
vt 0.915091395 0.181038231
vt 0.951706111 0.222927436
vt 0.938599825 0.269991487
vt 0.926087737 0.317147255
vt 0.91890198 0.364593357
vt 0.912924349 0.4120709
vt 0.910351276 0.459594667
vt 0.907990158 0.507124603
vt 0.906312883 0.554664314
vt 0.904648602 0.602206588
vt 0.903511822 0.64975822
vt 0.902485728 0.697318256
vt 0.90176934 0.74488169
vt 0.0482846275 0.745536506
vt 0.0461548381 0.697965622
vt 0.0437645502 0.650398672
vt 0.0411074758 0.60283488
vt 0.0370787121 0.555290401
vt 0.0319013968 0.507778764
vt 0.0258545633 0.460303307
vt 0.0189613476 0.412873745
vt 0.0111140404 0.365509778
vt 0.00328170764 0.318162143
vt 0 0.270724297
vt 0.015077211 0.224715531
vt 0.0546980612 0.183169067
vt 0.0806380212 0.138986304
vt 0.900823249 0.395898911
vt 0.884281916 0.315464346
vt 0.927250922 0.269749612
vt 0.940729141 0.222721517
vt 0.907305062 0.180021062
vt 0.880366249 0.142670215
vt 0.858911395 0.0918397456
vt 0.846525431 0.0616061389
vt 0.119937776 0.0626148011
vt 0.0838685483 0.137315959
vt 0.0609827079 0.181907818
vt 0.0237437189 0.224002615
vt 0.0179095211 0.263627444
vt 0.0164742187 0.322428091
vt 0.0425319464 0.446631606
vt 0.0615764164 0.603675047
vt 0.0696825381 0.696705279
vt 0.790733802 0.144253982
vt 0.272889476 0.15287425
vt 0.152168959 0.121966615
vt 0.69219631 0.0887209997
vt 0.793736637 0.0808609277
vt 0.291743249 0.105609454
vt 0.798381914 0.624568856
vt 0.288407256 0.596532096
vt 0.16510193 0.67599076
vt 0.740991912 0.33459227
vt 0.223283836 0.393525265
vt 0.851509333 0.150739729
vt 0.142259926 0.243200853
vt 0.109865922 0.108208689
vt 0.851016521 0.62408936
vt 0.807320182 0.761568433
vt 0.850684285 0.746712923
vt 0.669104967 0.681338458
vt 0.158504481 0.504954377
vt 0.450673404 0.679550159
vt 0.163139331 0.756923032
vt 0.302997576 0.689026849
vt 0.850039789 0.364025638
vt 0.772049229 0.431199133
vt 0.126700502 0.392936763
vt 0.863129998 0.184077084
vt 0.841373114 0.100424718
vt 0.0913546014 0.237867305
vt 0.133038163 0.0698973164
vt 0.160258859 0.0711146072
vt 0.0961969464 0.155362143
vt 0.886223987 0.536282665
vt 0.873050848 0.69664458
vt 0.740088443 0.741791162
vt 0.833949467 0.681982244
vt 0.117928567 0.461534333
vt 0.22432147 0.747928619
vt 0.875968002 0.355627138
vt 0.835861332 0.26087174
vt 0.853728294 0.452224725
vt 0.0806342999 0.38957437
vt 0.119030637 0.313427119
vt 0.110239558 0.356202772
vt 0.816546321 0.186633423
vt 0.827941716 0.114699222
vt 0.823827446 0.14383474
vt 0.795079589 0.110220052
vt 0.744716406 0.112320997
vt 0.613763509 0.24238523
vt 0.511584342 0.134284362
vt 0.491754862 0.0563396129
vt 0.743176103 0.0737626851
vt 0.713217922 0.185765519
vt 0.687456548 0.0538322031
vt 0.764938891 0.0502565876
vt 0.738728642 0.147107884
vt 0.766940176 0.190298483
vt 0.614046991 0.0668507665
vt 0.828754544 0.0685251877
vt 0.799662769 0.0522776954
vt 0.149873346 0.0531677008
vt 0.140155554 0.101449683
vt 0.101878911 0.196091577
vt 0.781271954 0.576835456
vt 0.763613266 0.689610935
vt 0.516302143 0.740652776
vt 0.0643699382 0.524681091
vt 0.20374912 0.705274343
vt 0.26841264 0.679754089
vt 0.310030518 0.751586693
vt 0.133259955 0.60899783
vt 0.833584574 0.410230303
vt 0.884752838 0.246268592
vt 0.0771286373 0.288453796
vt 0.170675324 0.404912209
vt 0.80222626 0.245370622
vt 0.703156893 0.212545236
vt 0.64123559 0.0450365134
vt 0.613735735 0.127926499
vt 0.678078205 0.135599317
vt 0.0609855503 0.209853202
vt 0.831473566 0.58333924
vt 0.649108646 0.730013983
vt 0.179223882 0.615378121
vt 0.384923464 0.69130365
vt 0.81425935 0.467702776
vt 0.819228642 0.549095904
vt 0.808605671 0.381887913
vt 0.837876797 0.221468464
vt 0.231243923 0.282946885
vt 0.175687974 0.31632292
vt 0.191847473 0.361636579
vt 0.209288672 0.322029531
vt 0.348261809 0.351493366
vt 0.276080519 0.3165811
vt 0.2993992 0.231846026
vt 0.288785523 0.397503469
vt 0.235195801 0.350429833
vt 0.228206267 0.239530737
vt 0.41505483 0.35830761
vt 0.397155796 0.180491561
vt 0.316096544 0.190203756
vt 0.476988776 0.468030173
vt 0.408113422 0.226953877
vt 0.394440287 0.463030955
vt 0.763969277 0.275004326
vt 0.599125317 0.181098341
vt 0.637808263 0.0972308144
vt 0.564557314 0.0950546786
vt 0.560162067 0.126358122
vt 0.524812579 0.10657993
vt 0.574461257 0.65914822
vt 0.265230076 0.490730203
vt 0.321228319 0.479228994
vt 0.216203281 0.659151511
vt 0.294930696 0.64467454
vt 0.816554307 0.295403648
vt 0.324780852 0.13524656
vt 0.401766896 0.0850988179
vt 0.4560588 0.105065435
vt 0.351424068 0.103181861
vt 0.324423194 0.0631955042
vt 0.212662369 0.123329982
vt 0.146258559 0.185438024
vt 0.12430755 0.151735976
vt 0.484058791 0.244588002
vt 0.450510085 0.168449551
vt 0.664568319 0.315676097
vt 0.514316073 0.636635986
vt 0.216834995 0.562021206
vt 0.205774514 0.497424019
vt 0.34262903 0.611948715
vt 0.44925459 0.627303568
vt 0.799250364 0.33198306
vt 0.190654799 0.0854721665
vt 0.194101304 0.0518970974
vt 0.560630581 0.341890245
vt 0.518421054 0.170994639
vt 0.455423772 0.134589061
vt 0.402812392 0.119063325
vt 0.265130788 0.553406239
vt 0.253226131 0.0736687332
vt 0.285418749 0.0468355492
vt 0.693483935 0.378138854
vt 0.562325835 0.155777618
vt 0.534388545 0.5558218
vt 0.464333816 0.551422503
vt 0.241968021 0.0497135855
vt 0.756158643 0.628603867
vt 0.762425518 0.523963057
vt 0.640672719 0.573913866
vt 0.734187841 0.55436039
vt 0.732141431 0.600977386
vt 0.679043235 0.498884426
vt 0.599957213 0.407735761
vt 0.71394068 0.44013682
vt 0.760113895 0.373179257
vt 0.741921663 0.401580423
vt 0.381578058 0.0531508438
vt 0.595513098 0.518174323
vt 0.551047027 0.0572524741
vt 0.177185304 0.23173703
vt 0.445857376 0.0667424351
vt 0.168622077 0.0119321207
vt 0.172118545 0.00987513456
vt 0.177975148 0.00771191576
vt 0.186629295 0.00567452284
vt 0.19734098 0.00389107224
vt 0.210272789 0.00260163913
vt 0.226062268 0.00170826004
vt 0.24397552 0.00083600037
vt 0.264466166 0.000386384578
vt 0.286699235 0.000466664031
vt 0.309996098 0.00114146934
vt 0.333864242 0.00221843529
vt 0.3576729 0.00314781931
vt 0.381741583 0.00378967333
vt 0.406036049 0.00416524382
vt 0.430376619 0.00450951653
vt 0.454787791 0.00471027894
vt 0.47926122 0.00477198325
vt 0.503673017 0.00467478251
vt 0.528170586 0.00444323197
vt 0.552629292 0.00415010378
vt 0.576915622 0.0037007425
vt 0.60099715 0.00310201803
vt 0.625123084 0.00209146389
vt 0.649068773 0.000707120693
vt 0.672521174 3.49870788e-05
vt 0.695209444 0
vt 0.716307104 0.000453814224
vt 0.735089242 0.00109999382
vt 0.751452088 0.00197250792
vt 0.765222967 0.00329005765
vt 0.776214063 0.00505009852
vt 0.785170197 0.00711382739
vt 0.791646123 0.00943824183
vt 0.795659006 0.0115808509
vt 0.806777675 0.0280662144
vt 0.813162684 0.03065148
vt 0.800102287 0.0260421187
vt 0.779113417 0.021641512
vt 0.767526362 0.0203331218
vt 0.743822101 0.0171931276
vt 0.726062692 0.0182560478
vt 0.691374759 0.0176308201
vt 0.670546712 0.017851845
vt 0.644375103 0.0192767584
vt 0.615130802 0.017340715
vt 0.597726405 0.0242903214
vt 0.582361311 0.0207836117
vt 0.54353267 0.0233031753
vt 0.527831241 0.0207649153
vt 0.4913251 0.0198248792
vt 0.459107604 0.0210754137
vt 0.44107613 0.0245946441
vt 0.413880229 0.0235016476
vt 0.307936805 0.0187819185
vt 0.242107402 0.0177711874
vt 0.224162728 0.021025022
vt 0.197148504 0.0243100546
vt 0.178996361 0.0262875368
vt 0.1670406 0.0255644436
vt 0.157954116 0.0287487984
vt 0.153300405 0.0353131754
vt 0.553150787 0.0175357863
vt 0.768239233 0.00675095004
vt 0.367751778 0.0151839935
vt 0.404495932 0.0156256423
vt 0.278981432 0.0178214076
vt 0.211782843 0.00622259515
vt 0.812907688 0.0368598493
vt 0.796676219 0.0124971308
vt 0.797321856 0.0132436911
vt 0.795878291 0.0144159487
vt 0.791222036 0.0153295575
vt 0.782205701 0.0160033442
vt 0.769640207 0.0168252233
vt 0.753913462 0.0177747086
vt 0.735643566 0.019256888
vt 0.715303659 0.0208128598
vt 0.693200886 0.0220209956
vt 0.670722902 0.0230302773
vt 0.648048699 0.0239006281
vt 0.625299692 0.0247013867
vt 0.602771163 0.0254380237
vt 0.580206633 0.0262073576
vt 0.556417227 0.0265784748
vt 0.531938791 0.0269516297
vt 0.507497311 0.0271282177
vt 0.482916802 0.0271698218
vt 0.45849368 0.0271539185
vt 0.434058785 0.0271097701
vt 0.409632206 0.0268494673
vt 0.385835558 0.0265074838
vt 0.363269031 0.0258848406
vt 0.340709895 0.0252891704
vt 0.318274707 0.0246853568
vt 0.295829743 0.0239415951
vt 0.273562163 0.0230567399
vt 0.251651764 0.0219727773
vt 0.231208533 0.0208512824
vt 0.213005424 0.0196479801
vt 0.197154701 0.018534882
vt 0.184291422 0.0173651688
vt 0.174999729 0.016301943
vt 0.169559866 0.015240117
vt 0.167533323 0.0137739675
vt 0.167653769 0.01293555
vt 0.156981807 0.0320854524
vt 0.151704565 0.0378438048
vt 0.212726281 0.0384075982
vt 0.226327628 0.0447649509
vt 0.261402798 0.0422463227
vt 0.270369858 0.0459912792
vt 0.286641419 0.0439999682
vt 0.32267493 0.0475992225
vt 0.352870875 0.0450627833
vt 0.364729494 0.0487051308
vt 0.385071306 0.042619025
vt 0.411053259 0.0484803842
vt 0.44292599 0.0499319695
vt 0.462803775 0.0469686707
vt 0.494646614 0.0502366481
vt 0.558762439 0.0478509437
vt 0.57547611 0.0488573574
vt 0.601421714 0.0483419038
vt 0.613499496 0.0445139147
vt 0.653547294 0.0432563972
vt 0.672612786 0.0459989756
vt 0.676449264 0.0377934312
vt 0.735786605 0.0409737265
vt 0.765727326 0.037032503
vt 0.784080029 0.0395110361
vt 0.784155459 0.0357144012
vt 0.804627712 0.0347505755
vt 0.813884616 0.0369480103
vt 0.186501662 0.0365874621
vt 0.161304772 0.0347758695
vt 0.324185432 0.0419374617
vt 0.428180018 0.0418275383
vt 0.631501284 0.0377141104
vt 0.537347255 0.0388945988
vt 0.807340272 0.0314151292
vt 0.718859546 0.0366875618
vt 0.756325154 0.0268115771
vt 0.788929889 0.0304794858
vt 0.198782959 0.0367741334
vt 0.173399926 0.0292416225
vt 0.238588897 0.03598987
vt 0.586174778 0.041849342
vt 0.127723441 0.0653236732
vt 0.103508815 0.0946127623
vt 0.0775424987 0.141553774
vt 0.0583335645 0.18811281
vt 0.0503441393 0.234862164
vt 0.0481963456 0.281648397
vt 0.0460136943 0.328472883
vt 0.0440548919 0.375298083
vt 0.0422574468 0.422096223
vt 0.0407376513 0.468857706
vt 0.0392816551 0.515589237
vt 0.0381796025 0.562286377
vt 0.0371554233 0.608953536
vt 0.0363254771 0.655578732
vt 0.0359585397 0.702163517
vt 0.036183171 0.748698473
vt 0.0371498838 0.7951805
vt 0.054358303 0.787280727
vt 0.126292333 0.799818337
vt 0.190090626 0.801261604
vt 0.388218243 0.789727494
vt 0.509589928 0.789730091
vt 0.585340424 0.788497435
vt 0.826121391 0.784919157
vt 0.94377761 0.723157128
vt 0.981324971 0.795595944
vt 0.977051616 0.748979032
vt 0.972798765 0.702308714
vt 0.968298316 0.655587316
vt 0.963889956 0.60883534
vt 0.959209681 0.562043905
vt 0.954332709 0.515228271
vt 0.949292362 0.468380243
vt 0.944095671 0.421503663
vt 0.938126564 0.374596983
vt 0.931972325 0.327691466
vt 0.925278246 0.280813992
vt 0.91615963 0.23406814
vt 0.907431901 0.187281325
vt 0.888138175 0.14072682
vt 0.860974193 0.0937534124
vt 0.83737421 0.0642925724
vt 0.0547426638 0.658850317
vt 0.0637114155 0.474184906
vt 0.0641060182 0.20875263
vt 0.0605633147 0.18827273
vt 0.0793643892 0.141549259
vt 0.12090286 0.0667594605
vt 0.842376046 0.0653909973
vt 0.887529194 0.140627384
vt 0.905909061 0.187392637
vt 0.912186166 0.254239787
vt 0.928258878 0.343922966
vt 0.938927936 0.4658317
vt 0.946357903 0.586691768
vt 0.523749926 0.336290525
vt 0.310566714 0.245429291
vt 0.150307611 0.128145844
vt 0.757290877 0.18812166
vt 0.293326706 0.137982175
vt 0.485768408 0.190309167
vt 0.813688397 0.122878507
vt 0.707027614 0.118292905
vt 0.482676655 0.120703131
vt 0.155158393 0.638397536
vt 0.885980294 0.751597195
vt 0.226209059 0.406598777
vt 0.730557323 0.453019828
vt 0.126890018 0.235319472
vt 0.113228858 0.120931759
vt 0.86070013 0.214855656
vt 0.846074259 0.109534513
vt 0.0957817957 0.635928273
vt 0.157792981 0.775468267
vt 0.0982545242 0.755504787
vt 0.913911421 0.673722364
vt 0.118093558 0.450313985
vt 0.879307389 0.443078435
vt 0.0895411447 0.214516282
vt 0.143550366 0.084542267
vt 0.895012383 0.21382079
vt 0.878539979 0.166235894
vt 0.890071586 0.284605437
vt 0.0686935646 0.719866519
vt 0.0767564258 0.580868173
vt 0.219750419 0.753277503
vt 0.118308948 0.697492971
vt 0.725994881 0.746020656
vt 0.901485903 0.477935268
vt 0.804357687 0.355890027
vt 0.847331139 0.531674038
vt 0.0758976562 0.290506369
vt 0.108551353 0.166218147
vt 0.195489132 0.0915982393
vt 0.139193594 0.0729859099
vt 0.845841467 0.144341171
vt 0.804623365 0.164951995
vt 0.846451326 0.309735662
vt 0.308380674 0.547297026
vt 0.770801222 0.696055655
vt 0.089708775 0.408537696
vt 0.447953088 0.744987187
vt 0.911790829 0.568998412
vt 0.10354409 0.253358333
vt 0.0898037776 0.150070146
vt 0.174947458 0.210032135
vt 0.136113614 0.184320912
vt 0.175036117 0.0706356093
vt 0.212608874 0.137320668
vt 0.176339254 0.164871454
vt 0.250067441 0.179424245
vt 0.759343743 0.133060887
vt 0.755809069 0.0889031887
vt 0.725873351 0.154443726
vt 0.626460113 0.124801491
vt 0.656265259 0.144298479
vt 0.632598162 0.0965910554
vt 0.653479815 0.212682635
vt 0.592525661 0.0898940861
vt 0.693247437 0.185555309
vt 0.635719478 0.177741304
vt 0.571583569 0.198176548
vt 0.810406923 0.20351176
vt 0.815589898 0.258366915
vt 0.873580635 0.331654102
vt 0.167628103 0.576917253
vt 0.0930301303 0.530266992
vt 0.278472513 0.745250751
vt 0.832318838 0.657308222
vt 0.148576684 0.396539152
vt 0.67038641 0.747852241
vt 0.624790283 0.670657646
vt 0.56604378 0.6285674
vt 0.707065481 0.615625812
vt 0.392541493 0.607529713
vt 0.648061988 0.586694074
vt 0.870401728 0.606400394
vt 0.817121964 0.565857806
vt 0.743137246 0.547231843
vt 0.679011325 0.498351391
vt 0.62547847 0.522787851
vt 0.588438062 0.431495506
vt 0.906987525 0.38763163
vt 0.0920228586 0.332646668
vt 0.148504254 0.332312676
vt 0.258415252 0.104068302
vt 0.338335752 0.0959981233
vt 0.241164148 0.0751263574
vt 0.225196511 0.211078703
vt 0.813426435 0.0865773708
vt 0.68538481 0.0826879516
vt 0.852022231 0.274586111
vt 0.119136699 0.585170313
vt 0.281491916 0.611518352
vt 0.181754842 0.367288113
vt 0.78737918 0.465204044
vt 0.680910041 0.422012975
vt 0.700376231 0.33559294
vt 0.295874357 0.0792964995
vt 0.38257134 0.147743315
vt 0.166730925 0.283795595
vt 0.220222662 0.300172712
vt 0.201891527 0.33146283
vt 0.260329466 0.26148601
vt 0.728807628 0.0746592507
vt 0.220496209 0.542345411
vt 0.141675249 0.490435619
vt 0.210444642 0.640655098
vt 0.776853919 0.330410212
vt 0.331295838 0.64230129
vt 0.352077007 0.130865678
vt 0.331647088 0.182060571
vt 0.390497953 0.0980760381
vt 0.25448364 0.364934057
vt 0.392580978 0.3705499
vt 0.200701905 0.444516563
vt 0.466359008 0.587735859
vt 0.359726471 0.23704005
vt 0.428757906 0.125269458
vt 0.438477486 0.163681328
vt 0.419695317 0.213275678
vt 0.370889127 0.418100238
vt 0.330241418 0.356164173
vt 0.272771418 0.513141453
vt 0.554238728 0.509883988
vt 0.387488283 0.182744471
vt 0.305727561 0.410911043
vt 0.320970987 0.480578946
vt 0.456691935 0.451206491
vt 0.443451169 0.4992482
vt 0.400793646 0.530070043
vt 0.44662453 0.384264607
vt 0.491944477 0.274215329
vt 0.26254611 0.446893615
vt 0.572066338 0.404643822
vt 0.632214053 0.344578899
vt 0.647811592 0.282563865
vt 0.564406417 0.288782973
vt 0.77337569 0.287759691
vt 0.744787991 0.238522321
vt 0.677573442 0.248855531
vt 0.714606404 0.275644422
vt 0.660094798 0.377682865
vt 0.850533724 0.179619983
vt 0.811879409 0.424629911
vt 0.524517179 0.0906709284
vt 0.472520024 0.0860194266
vt 0.547242343 0.130726546
vt 0.43292132 0.0794208646
vt 0.503667057 0.155534685
vt 0.748056678 0.372721131
vt 0.325156093 0.215634793
vt 0.354819447 0.0802554637
vt 0.574235743 0.231121546
vt 0.611900806 0.250208259
vt 0.558443248 0.164718032
g lower_skirt_lod1
f 11/11 12/12 16/16
f 11/11 17/17 10/10
f 13/13 14/14 18/18
f 15/15 1/1 20/20
f 26/26 7/7 541/541
f 14/14 15/15 21/21
f 13/13 19/19 12/12
f 533/533 8/8 534/534
f 11/11 16/16 17/17
f 534/534 8/8 10/10
f 10/10 8/8 9/9
f 16/16 535/535 17/17
f 19/19 18/18 536/536
f 19/19 536/536 16/16
f 536/536 535/535 16/16
f 18/18 14/14 21/21
f 534/534 10/10 17/17
f 538/538 537/537 20/20
f 2/2 22/22 1/1
f 4/4 5/5 26/26
f 23/23 3/3 24/24
f 540/540 26/26 582/582
f 101/101 25/25 2/2
f 23/23 25/25 101/101
f 7/7 26/26 6/6
f 16/16 12/12 19/19
f 23/23 24/24 540/540
f 26/26 24/24 4/4
f 538/538 20/20 539/539
f 21/21 15/15 20/20
f 22/22 539/539 20/20
f 21/21 20/20 537/537
f 25/25 22/22 2/2
f 582/582 26/26 541/541
f 542/542 541/541 7/7
f 101/101 3/3 23/23
f 26/26 540/540 24/24
f 4/4 24/24 3/3
f 20/20 1/1 22/22
f 6/6 26/26 5/5
f 13/13 18/18 19/19
f 34/34 33/33 58/58
f 56/56 55/55 65/65
f 62/62 28/28 61/61
f 44/44 63/63 45/45
f 33/33 32/32 58/58
f 30/30 29/29 59/59
f 62/62 61/61 41/41
f 29/29 28/28 62/62
f 57/57 31/31 60/60
f 32/32 57/57 58/58
f 60/60 39/39 38/38
f 30/30 60/60 31/31
f 36/36 35/35 58/58
f 59/59 29/29 62/62
f 56/56 67/67 27/27
f 30/30 59/59 60/60
f 57/57 37/37 58/58
f 59/59 62/62 40/40
f 59/59 39/39 60/60
f 59/59 40/40 39/39
f 55/55 54/54 63/63
f 38/38 37/37 57/57
f 61/61 27/27 67/67
f 41/41 40/40 62/62
f 48/48 66/66 52/52
f 42/42 41/41 61/61
f 63/63 54/54 64/64
f 58/58 35/35 34/34
f 65/65 55/55 63/63
f 32/32 31/31 57/57
f 53/53 66/66 64/64
f 51/51 50/50 48/48
f 53/53 52/52 66/66
f 51/51 48/48 138/138
f 60/60 38/38 57/57
f 28/28 27/27 61/61
f 48/48 50/50 205/205
f 46/46 66/66 47/47
f 63/63 44/44 65/65
f 53/53 64/64 54/54
f 67/67 42/42 61/61
f 65/65 43/43 67/67
f 205/205 50/50 49/49
f 64/64 66/66 46/46
f 43/43 65/65 44/44
f 138/138 48/48 52/52
f 45/45 64/64 46/46
f 63/63 64/64 45/45
f 66/66 48/48 47/47
f 56/56 65/65 67/67
f 43/43 42/42 67/67
f 74/74 90/90 75/75
f 98/98 97/97 12/12
f 73/73 89/89 74/74
f 13/13 92/92 96/96
f 1/1 102/102 2/2
f 72/72 71/71 92/92
f 91/91 89/89 95/95
f 96/96 14/14 13/13
f 90/90 77/77 76/76
f 96/96 92/92 71/71
f 78/78 91/91 9/9
f 98/98 108/108 92/92
f 90/90 91/91 77/77
f 91/91 78/78 77/77
f 88/88 87/87 93/93
f 95/95 11/11 10/10
f 90/90 74/74 89/89
f 13/13 97/97 92/92
f 90/90 89/89 91/91
f 13/13 12/12 97/97
f 100/100 104/104 109/109
f 85/85 84/84 107/107
f 101/101 93/93 86/86
f 104/104 88/88 93/93
f 108/108 89/89 73/73
f 75/75 90/90 76/76
f 82/82 81/81 105/105
f 107/107 83/83 105/105
f 3/3 94/94 4/4
f 94/94 106/106 107/107
f 71/71 70/70 96/96
f 70/70 69/69 99/99
f 81/81 80/80 105/105
f 11/11 95/95 98/98
f 2/2 102/102 93/93
f 108/108 73/73 72/72
f 98/98 92/92 97/97
f 94/94 107/107 4/4
f 9/9 91/91 10/10
f 11/11 98/98 12/12
f 89/89 98/98 95/95
f 96/96 99/99 14/14
f 15/15 14/14 99/99
f 100/100 69/69 68/68
f 100/100 99/99 69/69
f 15/15 100/100 109/109
f 86/86 85/85 106/106
f 109/109 1/1 15/15
f 2/2 93/93 101/101
f 103/103 102/102 1/1
f 104/104 102/102 103/103
f 102/102 104/104 93/93
f 86/86 93/93 87/87
f 105/105 80/80 79/79
f 105/105 83/83 82/82
f 5/5 105/105 79/79
f 6/6 5/5 79/79
f 107/107 105/105 4/4
f 106/106 94/94 3/3
f 107/107 84/84 83/83
f 106/106 101/101 86/86
f 92/92 108/108 72/72
f 89/89 108/108 98/98
f 95/95 10/10 91/91
f 96/96 70/70 99/99
f 104/104 100/100 68/68
f 88/88 104/104 68/68
f 109/109 103/103 1/1
f 99/99 100/100 15/15
f 109/109 104/104 103/103
f 5/5 4/4 105/105
f 3/3 101/101 106/106
f 107/107 106/106 85/85
f 116/116 131/131 117/117
f 53/53 159/159 52/52
f 131/131 116/116 115/115
f 112/112 111/111 144/144
f 138/138 122/122 121/121
f 114/114 113/113 133/133
f 155/155 131/131 115/115
f 141/141 29/29 142/142
f 117/117 131/131 118/118
f 160/160 139/139 154/154
f 132/132 119/119 131/131
f 55/55 151/151 54/54
f 34/34 120/120 33/33
f 119/119 132/132 120/120
f 118/118 131/131 119/119
f 124/124 137/137 125/125
f 142/142 30/30 31/31
f 141/141 142/142 133/133
f 32/32 33/33 132/132
f 144/144 145/145 28/28
f 128/128 146/146 129/129
f 150/150 148/148 146/146
f 135/135 150/150 149/149
f 124/124 123/123 137/137
f 32/32 132/132 143/143
f 137/137 123/123 122/122
f 157/157 158/158 147/147
f 138/138 137/137 122/122
f 144/144 134/134 140/140
f 157/157 149/149 146/146
f 137/137 159/159 125/125
f 27/27 28/28 156/156
f 160/160 27/27 156/156
f 150/150 152/152 148/148
f 155/155 115/115 114/114
f 151/151 135/135 153/153
f 143/143 133/133 142/142
f 137/137 138/138 136/136
f 143/143 155/155 133/133
f 120/120 132/132 33/33
f 113/113 112/112 140/140
f 110/110 130/130 139/139
f 140/140 141/141 133/133
f 140/140 133/133 113/113
f 143/143 142/142 31/31
f 32/32 143/143 31/31
f 134/134 141/141 140/140
f 134/134 29/29 141/141
f 131/131 143/143 132/132
f 28/28 29/29 134/134
f 142/142 29/29 30/30
f 145/145 111/111 110/110
f 145/145 144/144 111/111
f 28/28 145/145 156/156
f 157/157 128/128 127/127
f 149/149 150/150 146/146
f 158/158 127/127 126/126
f 135/135 151/151 152/152
f 154/154 139/139 148/148
f 157/157 146/146 128/128
f 153/153 149/149 147/147
f 152/152 150/150 135/135
f 154/154 152/152 56/56
f 135/135 149/149 153/153
f 152/152 151/151 55/55
f 54/54 153/153 53/53
f 148/148 152/152 154/154
f 160/160 56/56 27/27
f 56/56 152/152 55/55
f 51/51 138/138 121/121
f 148/148 139/139 130/130
f 148/148 130/130 129/129
f 133/133 155/155 114/114
f 131/131 155/155 143/143
f 140/140 112/112 144/144
f 156/156 145/145 139/139
f 144/144 28/28 134/134
f 145/145 110/110 139/139
f 158/158 157/157 127/127
f 149/149 157/157 147/147
f 159/159 158/158 126/126
f 136/136 52/52 159/159
f 151/151 153/153 54/54
f 153/153 147/147 53/53
f 146/146 148/148 129/129
f 154/154 56/56 160/160
f 156/156 139/139 160/160
f 125/125 159/159 126/126
f 136/136 159/159 137/137
f 159/159 147/147 158/158
f 53/53 147/147 159/159
f 52/52 136/136 138/138
f 267/267 235/235 340/340
f 174/174 36/36 58/58
f 264/264 232/232 265/265
f 330/330 219/219 267/267
f 238/238 173/173 174/174
f 238/238 172/172 173/173
f 172/172 238/238 171/171
f 238/238 174/174 58/58
f 170/170 171/171 237/237
f 169/169 170/170 237/237
f 168/168 169/169 237/237
f 166/166 167/167 189/189
f 198/198 236/236 199/199
f 190/190 164/164 165/165
f 166/166 189/189 165/165
f 240/240 212/212 220/220
f 189/189 167/167 168/168
f 236/236 268/268 286/286
f 238/238 58/58 222/222
f 58/58 37/37 222/222
f 251/251 252/252 250/250
f 37/37 38/38 221/221
f 214/214 320/320 273/273
f 279/279 247/247 202/202
f 237/237 238/238 220/220
f 237/237 189/189 168/168
f 190/190 165/165 189/189
f 190/190 189/189 243/243
f 418/418 366/366 256/256
f 238/238 237/237 171/171
f 190/190 191/191 164/164
f 341/341 426/426 425/425
f 206/206 251/251 249/249
f 162/162 163/163 192/192
f 161/161 162/162 193/193
f 192/192 193/193 162/162
f 194/194 161/161 193/193
f 195/195 194/194 232/232
f 163/163 191/191 192/192
f 163/163 164/164 191/191
f 161/161 194/194 195/195
f 558/558 557/557 196/196
f 437/437 558/558 404/404
f 196/196 264/264 405/405
f 195/195 196/196 557/557
f 405/405 404/404 196/196
f 195/195 232/232 264/264
f 196/196 404/404 558/558
f 557/557 161/161 195/195
f 287/287 237/237 220/220
f 265/265 260/260 409/409
f 411/411 260/260 259/259
f 259/259 413/413 412/412
f 222/222 37/37 221/221
f 300/300 298/298 295/295
f 283/283 415/415 414/414
f 414/414 413/413 283/283
f 407/407 264/264 265/265
f 283/283 413/413 259/259
f 217/217 194/194 231/231
f 229/229 291/291 292/292
f 222/222 221/221 240/240
f 234/234 219/219 197/197
f 246/246 202/202 248/248
f 252/252 253/253 257/257
f 406/406 405/405 264/264
f 205/205 276/276 214/214
f 252/252 257/257 210/210
f 273/273 242/242 226/226
f 409/409 260/260 410/410
f 408/408 265/265 409/409
f 239/239 38/38 39/39
f 356/356 357/357 358/358
f 406/406 264/264 407/407
f 314/314 263/263 313/313
f 270/270 221/221 239/239
f 218/218 279/279 233/233
f 433/433 364/364 327/327
f 242/242 46/46 226/226
f 205/205 47/47 48/48
f 296/296 247/247 367/367
f 43/43 44/44 290/290
f 226/226 46/46 47/47
f 178/178 272/272 204/204
f 179/179 203/203 272/272
f 46/46 242/242 45/45
f 204/204 205/205 176/176
f 274/274 275/275 242/242
f 176/176 205/205 175/175
f 177/177 204/204 176/176
f 179/179 272/272 178/178
f 180/180 203/203 179/179
f 47/47 214/214 226/226
f 178/178 204/204 177/177
f 316/316 314/314 315/315
f 184/184 202/202 203/203
f 246/246 248/248 230/230
f 181/181 182/182 203/203
f 435/435 348/348 353/353
f 183/183 184/184 203/203
f 290/290 338/338 225/225
f 326/326 327/327 324/324
f 182/182 183/183 203/203
f 203/203 180/180 181/181
f 202/202 184/184 201/201
f 231/231 193/193 192/192
f 175/175 205/205 49/49
f 217/217 250/250 232/232
f 208/208 340/340 328/328
f 435/435 423/423 348/348
f 307/307 301/301 207/207
f 340/340 235/235 341/341
f 235/235 219/219 234/234
f 234/234 266/266 235/235
f 427/427 266/266 428/428
f 211/211 347/347 327/327
f 323/323 207/207 211/211
f 253/253 261/261 285/285
f 423/423 327/327 348/348
f 364/364 368/368 324/324
f 256/256 368/368 420/420
f 263/263 366/366 415/415
f 415/415 366/366 416/416
f 261/261 253/253 206/206
f 422/422 421/421 368/368
f 216/216 297/297 303/303
f 420/420 419/419 256/256
f 219/219 236/236 198/198
f 200/200 201/201 185/185
f 199/199 200/200 186/186
f 219/219 198/198 197/197
f 187/187 199/199 186/186
f 240/240 221/221 212/212
f 198/198 187/187 188/188
f 198/198 199/199 187/187
f 186/186 200/200 185/185
f 201/201 184/184 185/185
f 266/266 426/426 235/235
f 430/430 197/197 517/517
f 429/429 428/428 234/234
f 430/430 429/429 197/197
f 429/429 234/234 197/197
f 517/517 197/197 518/518
f 518/518 197/197 188/188
f 198/198 188/188 197/197
f 231/231 194/194 193/193
f 232/232 194/194 217/217
f 233/233 201/201 286/286
f 268/268 233/233 286/286
f 239/239 221/221 38/38
f 39/39 40/40 288/288
f 221/221 270/270 212/212
f 240/240 238/238 222/222
f 271/271 41/41 42/42
f 288/288 40/40 317/317
f 273/273 226/226 214/214
f 275/275 274/274 227/227
f 205/205 214/214 47/47
f 190/190 243/243 322/322
f 311/311 322/322 339/339
f 192/192 278/278 231/231
f 228/228 243/243 277/277
f 322/322 243/243 228/228
f 190/190 244/244 278/278
f 245/245 277/277 243/243
f 202/202 201/201 279/279
f 230/230 241/241 272/272
f 202/202 246/246 203/203
f 246/246 230/230 272/272
f 294/294 231/231 278/278
f 281/281 262/262 206/206
f 251/251 250/250 217/217
f 232/232 250/250 210/210
f 251/251 217/217 231/231
f 252/252 251/251 206/206
f 253/253 252/252 206/206
f 210/210 250/250 252/252
f 261/261 262/262 258/258
f 253/253 209/209 257/257
f 305/305 299/299 301/301
f 323/323 211/211 326/326
f 366/366 418/418 417/417
f 326/326 345/345 323/323
f 259/259 257/257 209/209
f 260/260 411/411 410/410
f 283/283 209/209 263/263
f 411/411 259/259 412/412
f 210/210 257/257 260/260
f 257/257 259/259 260/260
f 261/261 206/206 262/262
f 285/285 282/282 312/312
f 294/294 249/249 231/231
f 263/263 209/209 313/313
f 195/195 264/264 196/196
f 260/260 265/265 210/210
f 407/407 265/265 408/408
f 210/210 265/265 232/232
f 286/286 201/201 200/200
f 279/279 201/201 233/233
f 266/266 234/234 428/428
f 426/426 266/266 427/427
f 267/267 208/208 330/330
f 219/219 235/235 267/267
f 236/236 219/219 330/330
f 223/223 288/288 317/317
f 220/220 238/238 240/240
f 269/269 287/287 212/212
f 270/270 239/239 223/223
f 39/39 288/288 239/239
f 270/270 223/223 354/354
f 271/271 40/40 41/41
f 43/43 271/271 42/42
f 271/271 43/43 225/225
f 205/205 204/204 276/276
f 204/204 241/241 276/276
f 272/272 203/203 246/246
f 214/214 289/289 320/320
f 273/273 320/320 274/274
f 227/227 290/290 275/275
f 242/242 273/273 274/274
f 45/45 275/275 44/44
f 245/245 243/243 189/189
f 189/189 237/237 245/245
f 291/291 277/277 245/245
f 277/277 229/229 293/293
f 191/191 278/278 192/192
f 244/244 294/294 278/278
f 248/248 202/202 247/247
f 279/279 218/218 247/247
f 207/207 301/301 304/304
f 296/296 230/230 248/248
f 241/241 224/224 276/276
f 251/251 231/231 249/249
f 281/281 206/206 249/249
f 322/322 311/311 281/281
f 311/311 262/262 281/281
f 209/209 283/283 259/259
f 415/415 283/283 263/263
f 258/258 285/285 261/261
f 313/313 285/285 284/284
f 253/253 285/285 209/209
f 233/233 268/268 329/329
f 200/200 199/199 286/286
f 212/212 287/287 220/220
f 287/287 269/269 292/292
f 334/334 317/317 271/271
f 204/204 272/272 241/241
f 216/216 336/336 280/280
f 276/276 224/224 289/289
f 275/275 290/290 44/44
f 321/321 290/290 227/227
f 242/242 275/275 45/45
f 237/237 287/287 245/245
f 292/292 291/291 245/245
f 277/277 291/291 229/229
f 293/293 362/362 339/339
f 190/190 278/278 191/191
f 301/301 299/299 300/300
f 297/297 216/216 280/280
f 296/296 297/297 280/280
f 280/280 241/241 230/230
f 241/241 280/280 224/224
f 296/296 280/280 230/230
f 296/296 298/298 297/297
f 297/297 298/298 303/303
f 367/367 247/247 218/218
f 295/295 298/298 296/296
f 302/302 303/303 300/300
f 300/300 299/299 302/302
f 307/307 309/309 301/301
f 301/301 300/300 295/295
f 301/301 309/309 305/305
f 300/300 303/303 298/298
f 216/216 303/303 302/302
f 304/304 301/301 295/295
f 367/367 295/295 296/296
f 307/307 207/207 323/323
f 309/309 342/342 305/305
f 329/329 218/218 233/233
f 329/329 208/208 328/328
f 345/345 326/326 324/324
f 292/292 355/355 229/229
f 328/328 304/304 367/367
f 307/307 306/306 309/309
f 207/207 304/304 328/328
f 343/343 331/331 332/332
f 305/305 308/308 310/310
f 299/299 310/310 302/302
f 299/299 305/305 310/310
f 289/289 224/224 335/335
f 294/294 281/281 249/249
f 311/311 282/282 258/258
f 244/244 322/322 281/281
f 282/282 254/254 312/312
f 343/343 255/255 350/350
f 282/282 285/285 258/258
f 284/284 285/285 312/312
f 311/311 258/258 262/262
f 285/285 313/313 209/209
f 314/314 313/313 284/284
f 315/315 314/314 284/284
f 314/314 256/256 366/366
f 350/350 284/284 312/312
f 316/316 315/315 255/255
f 325/325 324/324 368/368
f 256/256 314/314 316/316
f 286/286 199/199 236/236
f 239/239 288/288 223/223
f 290/290 225/225 43/43
f 290/290 337/337 338/338
f 359/359 355/355 357/357
f 334/334 271/271 225/225
f 271/271 317/317 40/40
f 224/224 280/280 336/336
f 318/318 335/335 336/336
f 321/321 227/227 274/274
f 276/276 289/289 214/214
f 320/320 213/213 321/321
f 355/355 292/292 269/269
f 292/292 245/245 287/287
f 228/228 277/277 293/293
f 281/281 294/294 244/244
f 339/339 322/322 228/228
f 296/296 248/248 247/247
f 434/434 364/364 433/433
f 307/307 323/323 306/306
f 422/422 368/368 364/364
f 256/256 316/316 325/325
f 316/316 255/255 325/325
f 255/255 332/332 344/344
f 327/327 326/326 211/211
f 325/325 344/344 345/345
f 347/347 328/328 340/340
f 433/433 327/327 423/423
f 329/329 328/328 367/367
f 330/330 268/268 236/236
f 208/208 267/267 340/340
f 211/211 207/207 328/328
f 330/330 329/329 268/268
f 208/208 329/329 330/330
f 343/343 332/332 255/255
f 331/331 312/312 254/254
f 306/306 331/331 309/309
f 255/255 344/344 325/325
f 310/310 319/319 302/302
f 342/342 308/308 305/305
f 331/331 342/342 309/309
f 346/346 318/318 319/319
f 289/289 335/335 320/320
f 302/302 319/319 318/318
f 320/320 321/321 274/274
f 335/335 213/213 320/320
f 337/337 321/321 213/213
f 337/337 290/290 321/321
f 337/337 213/213 319/319
f 310/310 308/308 352/352
f 213/213 346/346 319/319
f 337/337 319/319 310/310
f 310/310 352/352 338/338
f 190/190 322/322 244/244
f 293/293 339/339 228/228
f 311/311 339/339 215/215
f 426/426 341/341 235/235
f 424/424 353/353 341/341
f 425/425 424/424 341/341
f 343/343 312/312 331/331
f 342/342 331/331 254/254
f 360/360 342/342 349/349
f 359/359 361/361 355/355
f 350/350 255/255 315/315
f 331/331 306/306 332/332
f 306/306 344/344 332/332
f 306/306 323/323 345/345
f 325/325 345/345 324/324
f 345/345 344/344 306/306
f 318/318 336/336 216/216
f 215/215 349/349 333/333
f 333/333 254/254 282/282
f 311/311 215/215 282/282
f 282/282 215/215 333/333
f 225/225 338/338 334/334
f 317/317 334/334 351/351
f 335/335 224/224 336/336
f 318/318 216/216 302/302
f 335/335 346/346 213/213
f 318/318 346/346 335/335
f 328/328 347/347 211/211
f 340/340 341/341 353/353
f 327/327 347/347 348/348
f 353/353 347/347 340/340
f 333/333 342/342 254/254
f 362/362 293/293 363/363
f 333/333 349/349 342/342
f 284/284 350/350 315/315
f 312/312 343/343 350/350
f 334/334 338/338 352/352
f 435/435 353/353 424/424
f 347/347 353/353 348/348
f 352/352 351/351 334/334
f 358/358 223/223 356/356
f 269/269 357/357 355/355
f 317/317 365/365 356/356
f 357/357 269/269 358/358
f 354/354 358/358 269/269
f 354/354 269/269 212/212
f 270/270 354/354 212/212
f 356/356 223/223 317/317
f 223/223 358/358 354/354
f 317/317 351/351 365/365
f 359/359 356/356 365/365
f 308/308 342/342 360/360
f 359/359 365/365 360/360
f 215/215 362/362 349/349
f 308/308 360/360 365/365
f 351/351 352/352 308/308
f 337/337 310/310 338/338
f 229/229 355/355 361/361
f 349/349 361/361 359/359
f 360/360 349/349 359/359
f 361/361 349/349 363/363
f 215/215 339/339 362/362
f 363/363 293/293 229/229
f 361/361 363/363 229/229
f 349/349 362/362 363/363
f 422/422 364/364 434/434
f 324/324 327/327 364/364
f 351/351 308/308 365/365
f 357/357 356/356 359/359
f 416/416 366/366 417/417
f 314/314 366/366 263/263
f 295/295 367/367 304/304
f 329/329 367/367 218/218
f 420/420 368/368 421/421
f 325/325 368/368 256/256
f 418/418 256/256 419/419
f 407/407 408/408 432/432
f 406/406 401/401 402/402
f 431/431 388/388 389/389
f 386/386 387/387 419/419
f 413/413 392/392 393/393
f 409/409 396/396 397/397
f 438/438 404/404 403/403
f 421/421 422/422 434/434
f 406/406 400/400 401/401
f 399/399 400/400 432/432
f 409/409 398/398 432/432
f 398/398 409/409 397/397
f 410/410 395/395 396/396
f 411/411 412/412 394/394
f 396/396 409/409 410/410
f 392/392 413/413 414/414
f 391/391 414/414 431/431
f 389/389 390/390 431/431
f 393/393 394/394 412/412
f 388/388 431/431 419/419
f 387/387 388/388 419/419
f 433/433 381/381 382/382
f 385/385 386/386 419/419
f 399/399 432/432 398/398
f 403/403 404/404 402/402
f 436/436 374/374 375/375
f 424/424 376/376 377/377
f 391/391 431/431 390/390
f 391/391 392/392 414/414
f 370/370 371/371 428/428
f 384/384 385/385 434/434
f 381/381 433/433 380/380
f 379/379 423/423 378/378
f 377/377 378/378 435/435
f 411/411 394/394 395/395
f 433/433 423/423 380/380
f 434/434 433/433 383/383
f 409/409 432/432 408/408
f 436/436 376/376 425/425
f 373/373 374/374 436/436
f 427/427 373/373 436/436
f 405/405 406/406 404/404
f 424/424 425/425 376/376
f 428/428 371/371 372/372
f 429/429 369/369 370/370
f 369/369 429/429 474/474
f 417/417 431/431 416/416
f 404/404 406/406 402/402
f 474/474 429/429 430/430
f 418/418 431/431 417/417
f 414/414 416/416 431/431
f 395/395 410/410 411/411
f 393/393 412/412 413/413
f 431/431 418/418 419/419
f 406/406 432/432 400/400
f 406/406 407/407 432/432
f 383/383 433/433 382/382
f 434/434 420/420 421/421
f 419/419 420/420 434/434
f 419/419 434/434 385/385
f 376/376 436/436 375/375
f 427/427 436/436 426/426
f 427/427 428/428 372/372
f 435/435 424/424 377/377
f 429/429 370/370 428/428
f 423/423 435/435 378/378
f 414/414 415/415 416/416
f 380/380 423/423 379/379
f 384/384 434/434 383/383
f 426/426 436/436 425/425
f 373/373 427/427 372/372
f 489/489 490/490 508/508
f 513/513 503/503 477/477
f 503/503 514/514 504/504
f 497/497 498/498 511/511
f 462/462 505/505 461/461
f 473/473 475/475 472/472
f 470/470 503/503 469/469
f 481/481 482/482 505/505
f 479/479 463/463 464/464
f 474/474 430/430 473/473
f 473/473 430/430 475/475
f 468/468 513/513 477/477
f 503/503 470/470 514/514
f 503/503 513/513 469/469
f 510/510 507/507 496/496
f 470/470 471/471 514/514
f 513/513 468/468 469/469
f 493/493 494/494 507/507
f 515/515 467/467 477/477
f 442/442 443/443 512/512
f 466/466 479/479 465/465
f 512/512 441/441 442/442
f 463/463 505/505 462/462
f 506/506 459/459 486/486
f 515/515 478/478 479/479
f 460/460 461/461 505/505
f 459/459 506/506 458/458
f 507/507 451/451 452/452
f 508/508 455/455 456/456
f 505/505 482/482 483/483
f 506/506 457/457 458/458
f 492/492 493/493 516/516
f 515/515 466/466 467/467
f 465/465 479/479 464/464
f 460/460 505/505 485/485
f 510/510 446/446 447/447
f 472/472 504/504 471/471
f 497/497 511/511 510/510
f 511/511 498/498 500/500
f 475/475 504/504 472/472
f 456/456 457/457 506/506
f 502/502 437/437 509/509
f 454/454 455/455 508/508
f 451/451 507/507 450/450
f 449/449 507/507 448/448
f 447/447 448/448 510/510
f 439/439 509/509 437/437
f 490/490 516/516 453/453
f 477/477 467/467 468/468
f 510/510 445/445 446/446
f 443/443 444/444 511/511
f 445/445 510/510 511/511
f 475/475 476/476 504/504
f 509/509 512/512 501/501
f 440/440 441/441 509/509
f 439/439 440/440 509/509
f 505/505 483/483 485/485
f 438/438 439/439 437/437
f 485/485 483/483 484/484
f 485/485 459/459 460/460
f 438/438 437/437 404/404
f 459/459 485/485 486/486
f 489/489 508/508 488/488
f 515/515 477/477 478/478
f 487/487 506/506 486/486
f 479/479 481/481 505/505
f 456/456 506/506 508/508
f 508/508 506/506 488/488
f 515/515 479/479 466/466
f 479/479 480/480 481/481
f 479/479 505/505 463/463
f 452/452 516/516 507/507
f 492/492 516/516 491/491
f 453/453 516/516 452/452
f 516/516 493/493 507/507
f 496/496 494/494 495/495
f 507/507 494/494 496/496
f 516/516 490/490 491/491
f 509/509 501/501 502/502
f 512/512 509/509 441/441
f 498/498 499/499 500/500
f 507/507 510/510 448/448
f 511/511 512/512 443/443
f 500/500 512/512 511/511
f 504/504 514/514 471/471
f 488/488 506/506 487/487
f 450/450 507/507 449/449
f 490/490 453/453 508/508
f 454/454 508/508 453/453
f 501/501 512/512 500/500
f 445/445 511/511 444/444
f 532/532 534/534 531/531
f 534/534 532/532 533/533
f 586/586 574/574 596/596
f 567/567 566/566 598/598
f 531/531 559/559 530/530
f 603/603 590/590 581/581
f 559/559 529/529 530/530
f 529/529 559/559 528/528
f 527/527 528/528 559/559
f 526/526 527/527 560/560
f 562/562 561/561 621/621
f 632/632 633/633 631/631
f 560/560 524/524 525/525
f 523/523 561/561 522/522
f 523/523 524/524 561/561
f 633/633 494/494 493/493
f 560/560 525/525 526/526
f 591/591 590/590 603/603
f 534/534 559/559 531/531
f 600/600 534/534 591/591
f 616/616 645/645 655/655
f 535/535 536/536 590/590
f 17/17 591/591 534/534
f 720/720 587/587 597/597
f 571/571 592/592 541/541
f 602/602 536/536 18/18
f 559/559 600/600 589/589
f 669/669 601/601 589/589
f 689/689 729/729 687/687
f 561/561 524/524 560/560
f 623/623 574/574 609/609
f 560/560 527/527 559/559
f 520/520 562/562 519/519
f 561/561 520/520 521/521
f 576/576 662/662 625/625
f 562/562 520/520 561/561
f 563/563 519/519 562/562
f 564/564 563/563 586/586
f 521/521 522/522 561/561
f 519/519 563/563 518/518
f 475/475 430/430 517/517
f 633/633 667/667 494/494
f 564/564 517/517 518/518
f 564/564 611/611 476/476
f 564/564 475/475 517/517
f 476/476 475/475 564/564
f 586/586 596/596 611/611
f 518/518 563/563 564/564
f 578/578 612/612 588/588
f 565/565 588/588 566/566
f 573/573 728/728 627/627
f 478/478 664/664 479/479
f 481/481 675/675 482/482
f 591/591 535/535 590/590
f 608/608 595/595 561/561
f 485/485 484/484 729/729
f 580/580 722/722 723/723
f 483/483 482/482 663/663
f 658/658 673/673 719/719
f 483/483 729/729 484/484
f 675/675 663/663 482/482
f 586/586 611/611 564/564
f 503/503 504/504 611/611
f 504/504 476/476 611/611
f 715/715 718/718 674/674
f 17/17 535/535 591/591
f 477/477 624/624 478/478
f 664/664 478/478 610/610
f 596/596 624/624 503/503
f 624/624 610/610 478/478
f 723/723 725/725 695/695
f 597/597 598/598 720/720
f 587/587 599/599 597/597
f 608/608 561/561 560/560
f 609/609 621/621 561/561
f 582/582 541/541 592/592
f 25/25 23/23 604/604
f 660/660 661/661 620/620
f 610/610 596/596 574/574
f 559/559 601/601 560/560
f 604/604 23/23 540/540
f 570/570 571/571 547/547
f 545/545 571/571 541/541
f 586/586 609/609 574/574
f 544/544 541/541 543/543
f 545/545 541/541 544/544
f 546/546 571/571 545/545
f 600/600 559/559 534/534
f 546/546 547/547 571/571
f 547/547 548/548 570/570
f 486/486 485/485 725/725
f 570/570 550/550 569/569
f 659/659 599/599 641/641
f 549/549 550/550 570/570
f 551/551 552/552 569/569
f 550/550 551/551 569/569
f 570/570 548/548 549/549
f 569/569 552/552 568/568
f 543/543 541/541 542/542
f 684/684 670/670 682/682
f 496/496 667/667 681/681
f 629/629 497/497 681/681
f 579/579 628/628 629/629
f 498/498 666/666 499/499
f 629/629 498/498 497/497
f 700/700 692/692 682/682
f 613/613 630/630 575/575
f 495/495 667/667 496/496
f 604/604 647/647 25/25
f 490/490 722/722 635/635
f 488/488 723/723 489/489
f 632/632 630/630 579/579
f 688/688 627/627 728/728
f 575/575 630/630 636/636
f 489/489 723/723 722/722
f 613/613 628/628 630/630
f 664/664 480/480 479/479
f 720/720 612/612 613/613
f 635/635 631/631 633/633
f 618/618 537/537 538/538
f 644/644 537/537 686/686
f 635/635 724/724 631/631
f 597/597 567/567 598/598
f 567/567 568/568 554/554
f 666/666 498/498 629/629
f 554/554 555/555 567/567
f 649/649 538/538 648/648
f 556/556 567/567 555/555
f 500/500 499/499 666/666
f 568/568 553/553 554/554
f 568/568 552/552 553/553
f 567/567 556/556 566/566
f 502/502 588/588 565/565
f 588/588 502/502 501/501
f 581/581 684/684 642/642
f 437/437 502/502 565/565
f 565/565 557/557 558/558
f 557/557 565/565 566/566
f 437/437 565/565 558/558
f 568/568 597/597 599/599
f 566/566 556/556 557/557
f 568/568 599/599 569/569
f 501/501 500/500 588/588
f 598/598 566/566 588/588
f 597/597 568/568 567/567
f 559/559 589/589 601/601
f 602/602 590/590 536/536
f 639/639 587/587 720/720
f 18/18 21/21 644/644
f 590/590 602/602 581/581
f 603/603 600/600 591/591
f 538/538 539/539 648/648
f 571/571 570/570 619/619
f 540/540 616/616 604/604
f 659/659 570/570 569/569
f 619/619 605/605 607/607
f 652/652 648/648 650/650
f 609/609 561/561 595/595
f 621/621 586/586 563/563
f 595/595 585/585 623/623
f 662/662 610/610 625/625
f 503/503 611/611 596/596
f 612/612 578/578 613/613
f 598/598 588/588 612/612
f 628/628 613/613 578/578
f 613/613 575/575 639/639
f 614/614 641/641 599/599
f 668/668 587/587 640/640
f 614/614 599/599 668/668
f 581/581 642/642 669/669
f 589/589 600/600 603/603
f 617/617 643/643 593/593
f 670/670 644/644 686/686
f 617/617 646/646 660/660
f 643/643 617/617 560/560
f 22/22 647/647 539/539
f 618/618 538/538 649/649
f 605/605 659/659 594/594
f 599/599 659/659 569/569
f 605/605 619/619 570/570
f 654/654 653/653 607/607
f 660/660 608/608 617/617
f 585/585 677/677 622/622
f 595/595 608/608 620/620
f 562/562 621/621 563/563
f 609/609 586/586 621/621
f 585/585 595/595 620/620
f 576/576 625/625 627/627
f 623/623 585/585 622/622
f 623/623 622/622 626/626
f 595/595 623/623 609/609
f 503/503 624/624 477/477
f 596/596 610/610 624/624
f 626/626 574/574 623/623
f 625/625 626/626 627/627
f 626/626 622/622 627/627
f 626/626 625/625 610/610
f 622/622 665/665 627/627
f 687/687 688/688 676/676
f 629/629 628/628 578/578
f 628/628 579/579 630/630
f 578/578 666/666 629/629
f 681/681 497/497 510/510
f 633/633 632/632 579/579
f 632/632 631/631 637/637
f 732/732 638/638 631/631
f 638/638 637/637 631/631
f 667/667 633/633 579/579
f 637/637 636/636 632/632
f 493/493 492/492 633/633
f 492/492 491/491 635/635
f 714/714 709/709 572/572
f 635/635 633/633 492/492
f 635/635 491/491 490/490
f 722/722 490/490 489/489
f 722/722 724/724 635/635
f 632/632 636/636 630/630
f 575/575 636/636 634/634
f 726/726 732/732 724/724
f 634/634 636/636 637/637
f 634/634 637/637 638/638
f 716/716 715/715 640/640
f 639/639 640/640 587/587
f 640/640 575/575 716/716
f 594/594 606/606 721/721
f 589/589 603/603 581/581
f 683/683 643/643 669/669
f 18/18 644/644 602/602
f 645/645 540/540 582/582
f 646/646 583/583 671/671
f 560/560 617/617 608/608
f 646/646 617/617 593/593
f 25/25 647/647 22/22
f 649/649 648/648 652/652
f 647/647 648/648 539/539
f 650/650 648/648 647/647
f 650/650 647/647 604/604
f 655/655 654/654 672/672
f 655/655 656/656 650/650
f 652/652 656/656 657/657
f 650/650 616/616 655/655
f 655/655 645/645 654/654
f 571/571 619/619 592/592
f 645/645 653/653 654/654
f 656/656 652/652 650/650
f 592/592 619/619 653/653
f 607/607 653/653 619/619
f 607/607 672/672 654/654
f 649/649 652/652 657/657
f 693/693 649/649 657/657
f 701/701 657/657 656/656
f 701/701 656/656 673/673
f 673/673 656/656 584/584
f 693/693 618/618 649/649
f 659/659 605/605 570/570
f 641/641 606/606 594/594
f 646/646 661/661 660/660
f 671/671 661/661 646/646
f 680/680 677/677 678/678
f 660/660 620/620 608/608
f 661/661 585/585 620/620
f 576/576 663/663 662/662
f 675/675 480/480 664/664
f 576/576 687/687 663/663
f 483/483 663/663 729/729
f 610/610 662/662 664/664
f 662/662 675/675 664/664
f 626/626 610/610 574/574
f 627/627 665/665 573/573
f 585/585 661/661 677/677
f 665/665 622/622 680/680
f 588/588 666/666 578/578
f 666/666 588/588 500/500
f 579/579 629/629 681/681
f 494/494 667/667 495/495
f 587/587 668/668 599/599
f 715/715 668/668 640/640
f 581/581 669/669 589/589
f 537/537 644/644 21/21
f 645/645 616/616 540/540
f 582/582 592/592 653/653
f 582/582 653/653 645/645
f 678/678 679/679 690/690
f 650/650 604/604 616/616
f 584/584 656/656 655/655
f 607/607 605/605 594/594
f 674/674 727/727 685/685
f 701/701 673/673 658/658
f 614/614 606/606 641/641
f 717/717 718/718 716/716
f 615/615 682/682 670/670
f 618/618 651/651 686/686
f 641/641 594/594 659/659
f 594/594 672/672 607/607
f 675/675 481/481 480/480
f 662/662 663/663 675/675
f 687/687 576/576 688/688
f 695/695 696/696 580/580
f 671/671 690/690 679/679
f 622/622 677/677 680/680
f 690/690 671/671 583/583
f 679/679 677/677 661/661
f 679/679 678/678 677/677
f 697/697 694/694 708/708
f 496/496 681/681 510/510
f 579/579 681/681 667/667
f 669/669 643/643 601/601
f 583/583 646/646 692/692
f 669/669 642/642 683/683
f 643/643 683/683 593/593
f 642/642 684/684 682/682
f 581/581 602/602 684/684
f 644/644 684/684 602/602
f 560/560 601/601 643/643
f 537/537 618/618 686/686
f 679/679 661/661 671/671
f 707/707 651/651 693/693
f 614/614 668/668 715/715
f 674/674 719/719 727/727
f 658/658 711/711 705/705
f 651/651 618/618 693/693
f 688/688 576/576 627/627
f 687/687 676/676 689/689
f 695/695 689/689 676/676
f 485/485 689/689 725/725
f 703/703 690/690 583/583
f 699/699 691/691 680/680
f 665/665 680/680 573/573
f 678/678 699/699 680/680
f 708/708 694/694 691/691
f 683/683 642/642 682/682
f 615/615 700/700 682/682
f 693/693 657/657 701/701
f 606/606 685/685 727/727
f 651/651 615/615 670/670
f 651/651 670/670 686/686
f 670/670 684/684 644/644
f 676/676 702/702 696/696
f 696/696 695/695 676/676
f 723/723 695/695 580/580
f 696/696 577/577 726/726
f 577/577 696/696 697/697
f 701/701 658/658 705/705
f 699/699 678/678 690/690
f 680/680 691/691 694/694
f 703/703 699/699 690/690
f 593/593 692/692 646/646
f 692/692 593/593 683/683
f 692/692 683/683 682/682
f 705/705 706/706 701/701
f 694/694 573/573 680/680
f 694/694 702/702 728/728
f 694/694 697/697 702/702
f 697/697 696/696 702/702
f 688/688 702/702 676/676
f 710/710 704/704 703/703
f 698/698 691/691 699/699
f 692/692 700/700 710/710
f 700/700 615/615 704/704
f 698/698 699/699 703/703
f 711/711 708/708 705/705
f 698/698 706/706 705/705
f 693/693 701/701 706/706
f 704/704 707/707 706/706
f 707/707 704/704 615/615
f 706/706 707/707 693/693
f 706/706 698/698 703/703
f 638/638 577/577 730/730
f 709/709 697/697 708/708
f 577/577 697/697 709/709
f 707/707 615/615 651/651
f 710/710 703/703 583/583
f 706/706 703/703 704/704
f 710/710 700/700 704/704
f 698/698 708/708 691/691
f 708/708 711/711 572/572
f 719/719 711/711 658/658
f 712/712 572/572 711/711
f 711/711 719/719 712/712
f 572/572 709/709 708/708
f 712/712 714/714 572/572
f 714/714 712/712 713/713
f 714/714 731/731 730/730
f 731/731 713/713 717/717
f 714/714 730/730 709/709
f 715/715 674/674 685/685
f 713/713 712/712 674/674
f 715/715 685/685 614/614
f 575/575 717/717 716/716
f 717/717 575/575 634/634
f 713/713 674/674 718/718
f 716/716 718/718 715/715
f 713/713 718/718 717/717
f 727/727 719/719 673/673
f 712/712 719/719 674/674
f 612/612 720/720 598/598
f 639/639 720/720 613/613
f 724/724 722/722 580/580
f 487/487 725/725 488/488
f 723/723 488/488 725/725
f 726/726 724/724 580/580
f 486/486 725/725 487/487
f 695/695 725/725 689/689
f 696/696 726/726 580/580
f 732/732 577/577 638/638
f 721/721 672/672 594/594
f 672/672 584/584 655/655
f 584/584 672/672 727/727
f 685/685 606/606 614/614
f 721/721 606/606 727/727
f 584/584 727/727 673/673
f 721/721 727/727 672/672
f 694/694 728/728 573/573
f 688/688 728/728 702/702
f 687/687 729/729 663/663
f 485/485 729/729 689/689
f 698/698 705/705 708/708
f 577/577 709/709 730/730
f 714/714 713/713 731/731
f 717/717 634/634 731/731
f 730/730 634/634 638/638
f 634/634 730/730 731/731
f 575/575 640/640 639/639
f 724/724 732/732 631/631
f 577/577 732/732 726/726
f 692/692 710/710 583/583
